<svg id="Layer_1" data-name="Layer 1" xmlns="http://www.w3.org/2000/svg" viewBox="0 0 500 500"><defs><style>.cls-1{fill:#fefefe;}.cls-2{fill:#43914d;}.cls-3{fill:#35753e;}.cls-4{fill:#62c66f;}.cls-5{fill:#34723c;}.cls-6{fill:#326d3a;}.cls-7{fill:#82c78b;}.cls-8{fill:#85d28f;}.cls-9{fill:#82e18f;}.cls-10{fill:#52b45f;}.cls-11{fill:#408d49;}.cls-12{fill:#3a7f43;}.cls-13{fill:#6ce97c;}.cls-14{fill:#7ae487;}.cls-15{fill:#85d68f;}.cls-16{fill:#84ce8e;}.cls-17{fill:#83dc8f;}.cls-18{fill:#83ee91;}.cls-19{fill:#7fee8e;}.cls-20{fill:#6deb7c;}.cls-21{fill:#71fa83;}.cls-22{fill:#72fe84;}.cls-23{fill:#70e680;}.cls-24{fill:#6dec7d;}.cls-25{fill:#71f682;}.cls-26{fill:#73fd83;}.cls-27{fill:#7fe08c;}.cls-28{fill:#71f882;}.cls-29{fill:#6eed7e;}.cls-30{fill:#71fb83;}.cls-31{fill:#73fe84;}.cls-32{fill:#6dec7e;}.cls-33{fill:#73fd84;}.cls-34{fill:#6ff380;}.cls-35{fill:#6ff17f;}</style></defs><title>FINALFINALSquare</title><circle class="cls-1" cx="250" cy="250" r="353.55"/><path class="cls-2" d="M454,45h2v3c-.73,1.07-.68,2.35-.95,3.54q-.18,139.37-.05,278.71,0,37.47,0,74.92c0,2.15.37,4.34-.54,6.42l-.75.65-1-.26a6.25,6.25,0,0,1-2.06-4.9c-.08-1.67-.07-3.33-.07-5q0-172.11,0-344.21c0-1.83,0-3.67.09-5.49A13.35,13.35,0,0,1,454,45Z" transform="translate(-1 -1)"/><path class="cls-3" d="M454,412V55.29c0-1.5,0-3,0-4.5a.77.77,0,0,1,1-.79c.95,1.9.46,3.93.46,5.9q0,174.11.05,348.22c0,1.95-.51,4,.49,5.88v44.27c-1.11,2.15-2.72,1.72-4.16,1.72H415l-.22-.88.62-.66c4-1.62,8.16-.68,12.25-.81,6.43-.21,12.88.11,19.31-.17a6.42,6.42,0,0,0,2.05-1,8.37,8.37,0,0,0,2.38-2.68,8.91,8.91,0,0,0,1.05-2.12c.38-9.72,0-19.43.17-29.14C452.65,416.31,452.26,413.92,454,412Z" transform="translate(-1 -1)"/><path class="cls-4" d="M48,455H45v-4a5.5,5.5,0,0,1,3-1.39,26.28,26.28,0,0,1,4.4-.93c4-.17,8-.09,12-.09q175,0,350.09,0c11.41.32,22.84-.53,34.25.46a3,3,0,0,1,1.48,1.23,2.12,2.12,0,0,1-.75,1.73c-1.94,1.77-4.37,1.41-6.66,1.4-10.8-.05-21.62-.75-32.38-.78q-176.6-.48-353.2-.19c-2.33,0-4.69-.15-6.73,1.33A4.38,4.38,0,0,1,48,455Z" transform="translate(-1 -1)"/><path class="cls-4" d="M454,45c.47,2.38-1.3,4-2,6-1,1.72-.49,3.59-.49,5.39,0,116.16-.21,232.32.23,348.47.05,13.24,1.28,26.56,1.23,39.87,0,2.22.54,4.94-3,5.27-2.13-2.62-1.38-5.74-1.39-8.67q0-128.94,0-257.9c0-43.64-.13-87.29.08-130.94a23.18,23.18,0,0,1,.93-4.42A5.37,5.37,0,0,1,451,45Z" transform="translate(-1 -1)"/><path class="cls-5" d="M415,455v1h-5c-1.89-1-3.92-.49-5.88-.49q-174.27,0-348.52-.11c-1.77,0-4.33,1.69-5.49-1.35,2.56-2.3,5.71-1.43,8.61-1.43q141.92-.08,283.83,0,32.49,0,65,0c2.32,0,4.68-.32,6.9.73A1.26,1.26,0,0,1,415,455Z" transform="translate(-1 -1)"/><path class="cls-6" d="M50,454a.77.77,0,0,0,.79,1c1.5,0,3,0,4.5,0H404.71c1.5,0,3,0,4.5,0a.77.77,0,0,1,.79,1H53.29c-1.5,0-3,0-4.5,0a.77.77,0,0,1-.79-1,.85.85,0,0,1,1-1l.5-.38Z" transform="translate(-1 -1)"/><path class="cls-7" d="M451,45v3a1.87,1.87,0,0,1-1.63.31,25.74,25.74,0,0,0-2.59-.78c-2.33-.19-4.66-.11-7-.11q-169.79,0-339.56,0c-2.82,0-5.66.25-8.46-.33-1-.37-1.85-.81-1.77-2.07Z" transform="translate(-1 -1)"/><path class="cls-7" d="M48,451H45V90c1.29-.11,1.68.82,2.06,1.77.59,2.8.34,5.64.34,8.46q0,169.54,0,339.08c0,2.49-.08,5,.12,7.48.16.88.56,1.7.8,2.56A2,2,0,0,1,48,451Z" transform="translate(-1 -1)"/><path class="cls-6" d="M456,410a.77.77,0,0,1-1-.79c0-1.5,0-3,0-4.5V50c.15-.76-.5-1.91,1-2Z" transform="translate(-1 -1)"/><path class="cls-8" d="M90,45a.85.85,0,0,0,1,1,1.2,1.2,0,0,1-.33,1.6,5.58,5.58,0,0,1-1.63.83c-12.63,0-25.26,0-37.89-.14A4.2,4.2,0,0,1,48,47c0-1,1-1.21,1.42-2Z" transform="translate(-1 -1)"/><path class="cls-8" d="M46,91a.85.85,0,0,0-1-1V50.53c.67-.84,1.39-.4,2-.53a3.49,3.49,0,0,1,1.24,2.64c.26,12.13.14,24.27.2,36.4a5.61,5.61,0,0,1-.82,1.64A1.23,1.23,0,0,1,46,91Z" transform="translate(-1 -1)"/><path class="cls-9" d="M48,47q17.18,0,34.36,0c1.59,0,3.26-.33,4.56,1,1.11-.1,1.8-1.47,3.08-1a1.64,1.64,0,0,1,.45,1.43,2.9,2.9,0,0,1-.89,1.31,4.47,4.47,0,0,1-4.76.46c-3-1.37-6.23-.64-9.35-.8-8.93-.48-17.91.94-26.8-.77L48,48Z" transform="translate(-1 -1)"/><path class="cls-9" d="M47,90a2.8,2.8,0,0,1,1.27-2.79C46.72,85.93,47,84.12,47,82.36V50c.15-.76-.5-1.91,1-2,1.63,1.77,1.39,4,1.39,6.1,0,8.26,0,16.51,0,24.77,0,2-.18,4,.77,5.83a4.53,4.53,0,0,1-.39,4.82,2.86,2.86,0,0,1-1.32.92A1.69,1.69,0,0,1,47,90Z" transform="translate(-1 -1)"/><path class="cls-10" d="M450,450c1,.05,1.22-1,2-1.43,0-10,.81-20-.23-29.9-1-10.08-.48-20.07-.72-30.1S451,368.26,451,358.1V56.29c0-1.5,0-3,0-4.5a.77.77,0,0,1,1-.79V403.42a29.22,29.22,0,0,1-.05,4.49c-.25,1.59,1.52,2.53,1.05,4.09a299.27,299.27,0,0,1,0,38,.85.85,0,0,0-1,1,1.34,1.34,0,0,1-2,0Z" transform="translate(-1 -1)"/><path class="cls-11" d="M453,450q-.12-17.87-.27-35.74c0-.24-.44-.47-.67-.7.19-.59,1.11-.75.94-1.56h1c0,11.91,0,23.82,0,35.73C454,448.53,454.66,449.83,453,450Z" transform="translate(-1 -1)"/><path class="cls-11" d="M415,454H50c.33-2.18,2.1-2.27,3.7-2.45a35.39,35.39,0,0,1,4,0c115.54,0,231.07-.21,346.6.24,15.2.06,30.49.05,45.71,1.24a.85.85,0,0,1-1,1A238.16,238.16,0,0,1,415,454Z" transform="translate(-1 -1)"/><path class="cls-10" d="M450,453H415a1.6,1.6,0,0,1-.49,0c-.15-.06-.25-.22-.36-.34s-.23-.24-.36-.35-.26-.25-.35-.23-.24.22-.36.34-.22.24-.35.35a1.34,1.34,0,0,1-.4.23,2.08,2.08,0,0,1-.5,0h-1a1.16,1.16,0,0,1-.45-.12,2,2,0,0,1-.36-.35,2.81,2.81,0,0,0-.35-.34,1,1,0,0,0-.42-.18,2.8,2.8,0,0,0-.5,0H52.43c-.29,1.4-2.41.38-2.43,2H49v-1.5A10,10,0,0,1,54.88,451q178.73,0,357.45,0c11,1.92,22.06.63,33.08,1,1.62.05,3.24.16,4.59-1h2A2.44,2.44,0,0,1,450,453Z" transform="translate(-1 -1)"/><path class="cls-12" d="M415,454h34c-.17,1.66-1.47,1-2.27,1-10.58,0-21.15,0-31.73,0Z" transform="translate(-1 -1)"/><path class="cls-13" d="M450,51V450H415a1.56,1.56,0,0,1,.7-1.57c7.32-2,14.8-.48,22.19-1,2.93-.2,6,.61,9.26-1.2.73-9.81,0-19.89.37-29.94.09-.88.1-1.77.12-2.66,0-.59,0-1.19,0-1.79s0-1.21,0-1.82-.09-1.26-.15-1.9q-.26-171.9-.1-343.8c0-2.81.33-5.67-.69-8.44-2.72-1.93-5.81-1.24-8.73-1.25q-166.41,0-332.81,0c-3.16,0-6.34.17-9.49-.11-1.86-.17-4.19.17-4.75-2.56,2.61-2.16,5.74-1.34,8.65-1.34q169.8-.06,339.6,0c3,0,6,0,9-.08A2.93,2.93,0,0,1,450,51Z" transform="translate(-1 -1)"/><path class="cls-13" d="M415,449v1H51a2.93,2.93,0,0,1-.49-1.89c.17-35.47.06-70.95.07-106.43q0-121.17,0-242.35c0-2.76-.7-5.7,1.18-8.22,2.51-.14,2.36,1.92,2.61,3.4a44.57,44.57,0,0,1,.22,7.49q0,167.7,0,335.42c0,3-.38,6,.79,8.79,2.73,1.72,5.64,1.13,8.4,1.13q166.46,0,332.92,0c3.67,0,7.33-.05,11,.06a11.88,11.88,0,0,1,1.78.15l1.71.09a11.54,11.54,0,0,1,1.65.17,4.93,4.93,0,0,1,1.54.57Z" transform="translate(-1 -1)"/><path class="cls-14" d="M51,449v1c-1.06.14-1.73,1.49-3,1v-1a1.91,1.91,0,0,1-.12-1.71,9,9,0,0,0,.55-1.76,72.21,72.21,0,0,0,.15-7.5q0-169.87,0-339.75c0-3-.67-6,1-8.81l.76-.65.86.51c.54,1.8.27,3.64.27,5.46q0,173.65,0,347.31C51.46,445.06,52,447.1,51,449Z" transform="translate(-1 -1)"/><path class="cls-14" d="M450,51h-1c-1.39.84-2.93.47-4.4.47q-175.52,0-351,0a15.73,15.73,0,0,1-3-.14l-.68-.72c.13-.31.27-.61.4-.91,2.73-1.83,5.83-1.09,8.76-1.09q169.74-.06,339.48,0a78.66,78.66,0,0,0,8-.16,11.84,11.84,0,0,0,1.75-.55A2,2,0,0,1,450,48h1C451.49,49.27,450.14,49.94,450,51Z" transform="translate(-1 -1)"/><path class="cls-15" d="M450,48h-1c-1.75,1.38-3.82,1-5.78,1Q269.49,49,95.77,49c-2,0-4,.45-5.77-1V47h1c1.73-.92,3.6-.46,5.4-.46q173.6,0,347.2,0c1.8,0,3.67-.46,5.4.46A.85.85,0,0,1,450,48Z" transform="translate(-1 -1)"/><path class="cls-16" d="M449,47H91V46H443.71c1.5,0,3,0,4.5,0A.77.77,0,0,1,449,47Z" transform="translate(-1 -1)"/><path class="cls-15" d="M48,449v1a.85.85,0,0,1-1-1c-.92-1.73-.46-3.6-.46-5.4q0-173.6,0-347.2c0-1.8-.46-3.67.46-5.4V90h1c1.43,1.74,1,3.82,1,5.77q0,173.73,0,347.45C49,445.18,49.38,447.25,48,449Z" transform="translate(-1 -1)"/><path class="cls-16" d="M47,91V449a.77.77,0,0,1-1-.79c-.05-1.5,0-3,0-4.5V91Z" transform="translate(-1 -1)"/><path class="cls-17" d="M90,48H449v1c-1.39.84-2.93.47-4.4.47q-176.1,0-352.2,0c-.5,0-1,0-1.5,0L90,49Z" transform="translate(-1 -1)"/><path class="cls-18" d="M50,86c-1,0-1.21-1-2-1.42V48H84.58c.42.79,1.47,1,1.42,2-1.89,1.89-4.32,1.29-6.57,1.38-8.57.33-17.16-.58-25.7.54a7.12,7.12,0,0,0-1.81,1.82c-1.15,8.55-.19,17.14-.54,25.69C51.29,81.69,51.89,84.12,50,86Z" transform="translate(-1 -1)"/><path class="cls-19" d="M52,51c.17-1.66,1.47-1,2.27-1C64.85,50,75.42,50,86,50c.79,0,1.61.17,2.19-.67.45-.66,1.2-.21,1.81-.33.35.22.47.44.35.67S90.12,50,90,50v1l-.59.56a5.87,5.87,0,0,1-2.39.68c-.87.1-1.74.12-2.62.14q-13.16.06-26.3,0C56,52.37,53.74,52.73,52,51Z" transform="translate(-1 -1)"/><path class="cls-17" d="M48,449V90h1l.43.9q.2,123.39,0,246.79,0,52.95,0,105.91c0,1.8.46,3.67-.46,5.4Z" transform="translate(-1 -1)"/><path class="cls-19" d="M50,86c0-10.58,0-21.15,0-31.73,0-.8-.69-2.1,1-2.27,1.73,1.74,1.37,4,1.38,6.1q.06,13.16,0,26.3c0,.87,0,1.74-.11,2.61a5.5,5.5,0,0,1-.69,2.4c-.19.2-.39.39-.59.59H50c-.33.49-.67.49-1,0,0-.79-.17-1.61.67-2.19C50.33,87.36,49.88,86.61,50,86Z" transform="translate(-1 -1)"/><path class="cls-20" d="M91,52a.77.77,0,0,0,.79,1c1.5.05,3,0,4.5,0H449V410c-.27.2-.51.54-.8.58-11.06,1.64-22.08.73-32.47.53-2.77-3.49-2.12-6.6-2.12-9.52q-.06-82,0-163.95,0-69.73,0-139.46a58.15,58.15,0,0,0-.2-7.47A7.7,7.7,0,0,0,412.06,88c-1-.82-2.41-.8-3.62-1.34a65.07,65.07,0,0,0-8.49-.21q-150.37,0-300.75,0c-3.1,0-6.35.66-10.19-1.84-.51-10.25-1.08-21.08.32-32A1.26,1.26,0,0,1,91,52Z" transform="translate(-1 -1)"/><path class="cls-21" d="M414,89a.77.77,0,0,1,1,.79c0,1.5,0,3,0,4.5V410h34v1c-1.77,1.62-4,1.38-6.1,1.39-8.58,0-17.15,0-25.72,0a4.74,4.74,0,0,0-3.54,1.27c-1.19.85-1.26,2.1-1.24,3.41,0,8.6,0,17.19,0,25.79,0,2.12.23,4.34-1.39,6.11h-1c-1.94-2.24-1.54-5-1.61-7.63-.21-7.78.39-15.6-.39-23.17-3-2.24-6.12-1.54-9-1.54q-150.08-.06-300.17-.07c-3.25,0-6.7.76-9.65-1.49l-.33-.94.69-.72c2.84-1.39,5.89-.83,8.85-.83q153.39-.06,306.71,0c-.07,0,.32-.17.32-.17s-.42,0-.49,0q-153,.06-305.79-.06c-2.79,0-6.47,1.69-8.19-2.43,2.77-2.2,6-1.5,9.15-1.5q100.71-.07,201.41,0,49.23,0,98.46,0c2.46,0,5,.39,7.42-.88,1.58-2.58,1-5.48,1-8.24q0-149.19.06-298.37c0-3.27-.73-6.71,1.36-9.71,2.64-.28,2.32,1.85,2.52,3.32a46.68,46.68,0,0,1,.13,6.48q0,152.09,0,304.11c0-.07.13.34.13.34a4.69,4.69,0,0,0,.05-.49q-.06-154,0-307.79c0-2.48-.38-5,.73-7.39C413.55,89.48,413.78,89.24,414,89Z" transform="translate(-1 -1)"/><path class="cls-22" d="M449,415v34H415c-1.64-1.79-1.36-4-1.39-6.17-.1-9,.17-18-.18-27a2.81,2.81,0,0,1,.79-1.69,2.93,2.93,0,0,1,1.71-.73c9,.38,17.94.07,26.92.19C445,413.64,447.21,413.37,449,415Z" transform="translate(-1 -1)"/><path class="cls-23" d="M91,52H90a.6.6,0,0,1-.25-.67c.08-.22.17-.33.25-.33H449a.77.77,0,0,1-.79,1c-1.5.05-3,0-4.5,0Z" transform="translate(-1 -1)"/><path class="cls-24" d="M449,415q-14.72,0-29.43,0c-1.61,0-3.23.15-4.57-1,0-1.64,1.2-1.88,2.37-1.89,9.95-.14,19.9-.24,29.85.05A3.24,3.24,0,0,1,449,413Z" transform="translate(-1 -1)"/><path class="cls-25" d="M449,413c-10.58,0-21.15,0-31.73,0-.8,0-2.1-.69-2.27,1-1.11.55-1.63-.07-2-1a2.44,2.44,0,0,1,2-2c7.54,1.15,15.14.17,22.7.53,3.76.18,7.57-.56,11.3.47Z" transform="translate(-1 -1)"/><path class="cls-26" d="M449,412c-10.58,0-21.15,0-31.73,0-.8,0-2.1.69-2.27-1h34Z" transform="translate(-1 -1)"/><path class="cls-20" d="M89,414a.77.77,0,0,0,.79,1c1.5,0,3,0,4.5,0H410v34H53.27c-.61-1.68-.25-3.5-.25-5.25Q53,270,53,96.29c0-1.5,0-3,0-4.5A.77.77,0,0,0,52,91a1.25,1.25,0,0,1,.59-1.66c10.74-1.55,21.46-.59,31.49-.48C87,92,86.38,95,86.39,97.72q.06,53.22,0,106.46,0,98,0,195.93c0,2.66-.08,5.33.13,8A16.41,16.41,0,0,0,89,414Z" transform="translate(-1 -1)"/><path class="cls-23" d="M52,90V443.71c0,1.5,0,3,0,4.5a.77.77,0,0,1-1,.79V90A.61.61,0,0,1,52,90Z" transform="translate(-1 -1)"/><path class="cls-24" d="M414,415c1.16,1.34,1,3,1,4.57q0,14.71,0,29.43h-2c-1.06-1.25-1-2.77-1-4.26,0-8.46-.07-16.92.05-25.38C412.08,417.77,411.2,415.47,414,415Z" transform="translate(-1 -1)"/><path class="cls-25" d="M414,415c-1.66.17-1,1.47-1,2.27,0,10.58,0,21.15,0,31.73h-1c-1.09-9.37-.16-18.78-.51-28.16-.07-1.95.52-4-.49-5.84v-2h2l2,1A.85.85,0,0,1,414,415Z" transform="translate(-1 -1)"/><path class="cls-26" d="M411,415c1.66.17,1,1.47,1,2.27,0,10.58,0,21.15,0,31.73h-1Z" transform="translate(-1 -1)"/><path class="cls-27" d="M49,90h1V443.71c0,1.5,0,3,0,4.5a.77.77,0,0,1-1,.79Z" transform="translate(-1 -1)"/><path class="cls-27" d="M90,50V49H449a.77.77,0,0,1-.79,1c-1.5.05-3,0-4.5,0Z" transform="translate(-1 -1)"/><path class="cls-28" d="M52,90H51V88a2.6,2.6,0,0,1,1.54-.52c9.46.31,18.94.07,28.35.11-.06,0,.14-.32.14-.32l-.42.1c-7.87,0-15.66,0-23.46,0-2.14,0-4.36.2-6.15-1.39V52a.85.85,0,0,0,1-1H86c1.58,1.78,1.38,4,1.39,6.1,0,7.91,0,15.81,0,23.66,0-.06,0,.32,0,.32s.26-.26.25-.33c-.15-9.44.15-18.83-.19-28.22A2.55,2.55,0,0,1,88,51h2V84.85c1.74.05,3.51.14,5.28.14H404.71c1.5,0,3,0,4.5,0a.77.77,0,0,1,.79,1c-2.59,2.24-5.73,1.37-8.63,1.38q-150.19.06-300.39,0c-13.56,0-13.56,0-13.56,13.56q0,150.2,0,300.38c0,2.91.86,6.05-1.38,8.64a.77.77,0,0,1-1-.79c0-1.5,0-3,0-4.5V90Z" transform="translate(-1 -1)"/><path class="cls-29" d="M87,85c-1.66-.17-1-1.47-1-2.27C86,72.15,86,61.58,86,51h2v1a2.13,2.13,0,0,1,.12,1.78c-.28,8.48,0,17-.14,25.46C88,81.19,88.41,83.27,87,85Z" transform="translate(-1 -1)"/><path class="cls-29" d="M51,86c10.58,0,21.15,0,31.73,0,.8,0,2.1-.69,2.27,1-1.73,1.41-3.81,1-5.76,1-8.49.12-17-.14-25.46.14A2.13,2.13,0,0,1,52,88H51Z" transform="translate(-1 -1)"/><path class="cls-30" d="M86,410V89.39c.76-.32,1.75-.45,1.83-.8.5-2.18,2.15-2.46,3.9-2.58,1.16-.07,2.33,0,3.5,0H410c3.34,0,3.59.23,4,3-.45.49-.67,1.23-1.44,1.41a2.71,2.71,0,0,1-1.39-.32c-1.43-.83-3-.67-4.58-.69q-153.28,0-306.55,0c-2.64,0-5.33-.39-7.9.56a8,8,0,0,0-1.34,1.14,14.89,14.89,0,0,0-1.11,1.38A19.4,19.4,0,0,0,89.42,98q0,154.31,0,308.6c0,1.54-.14,3.14.69,4.58a2.61,2.61,0,0,1,.32,1.37c-.16.78-.92,1-1.42,1.46C86.23,413.59,86.05,413.34,86,410Z" transform="translate(-1 -1)"/><path class="cls-31" d="M90,91V90a4.58,4.58,0,0,1,1.78-.85,39.61,39.61,0,0,1,5-.14q153.18,0,306.34.07c2.32,0,5.42-1.58,6.89,1.92V410H91c-1.64,0-1.78-1.21-1.9-2.39a49,49,0,0,1-.09-5q0-152.16,0-304.33C89,95.84,88.39,93.25,90,91Z" transform="translate(-1 -1)"/><path class="cls-32" d="M90,91V404.71c0,1.5,0,3,0,4.5a.77.77,0,0,0,1,.79.77.77,0,0,0,.79,1c1.5,0,3,0,4.5,0H404.71c1.5,0,3,0,4.5,0a.77.77,0,0,1,.79,1c-1.75,1.38-3.82,1-5.78,1Q250,413,95.78,413c-2,0-4,.4-5.78-1a2.46,2.46,0,0,1-2-3c1-1.89.49-3.93.49-5.88q0-153.12.05-306.22c0-2-.49-4,.46-5.9Z" transform="translate(-1 -1)"/><path class="cls-32" d="M410,91a.77.77,0,0,0-.79-1c-1.5,0-3,0-4.5,0H91c-.12-1.11.55-1.42,1.49-1.45,1.5-.06,3,0,4.49,0q153.07,0,306.14,0c2,0,4,.51,5.88-.49a2.46,2.46,0,0,1,3,2c1.38,1.75,1,3.82,1,5.78q0,154.22,0,308.44c0,2,.4,4-1,5.78a.77.77,0,0,1-1-.79c0-1.5,0-3,0-4.5V96.29c0-1.5,0-3,0-4.5A.77.77,0,0,0,410,91Z" transform="translate(-1 -1)"/><path class="cls-33" d="M413,90a.85.85,0,0,1,1-1V404.71c0,1.5,0,3,0,4.5a.77.77,0,0,1-1,.79c-.92-1.73-.46-3.6-.46-5.4q0-154.61,0-309.2C412.54,93.6,412.08,91.73,413,90Z" transform="translate(-1 -1)"/><path class="cls-33" d="M89,414a.85.85,0,0,1,1-1c1.73-.92,3.6-.46,5.4-.46q154.6,0,309.2,0c1.8,0,3.67-.46,5.4.46a.77.77,0,0,1-.79,1c-1.5,0-3,0-4.5,0Z" transform="translate(-1 -1)"/><ellipse class="cls-34" cx="411.5" cy="249" rx="0.71" ry="226.27"/><ellipse class="cls-34" cx="249" cy="411.5" rx="226.27" ry="0.71"/><path class="cls-31" d="M53.35,84.85l-1.26-1.26V53.51C53,51.92,54.25,52,55.62,52c9.3,0,18.6,0,27.88,0l1.4,1.4V84.85Z" transform="translate(-1 -1)"/><path class="cls-33" d="M88,53V52a.76.76,0,0,1,1,.79q0,15.71,0,31.42A.76.76,0,0,1,88,85,211,211,0,0,1,88,53Z" transform="translate(-1 -1)"/><path class="cls-33" d="M52,88h1a211,211,0,0,1,32,0,.76.76,0,0,1-.79,1q-15.7,0-31.42,0A.76.76,0,0,1,52,88Z" transform="translate(-1 -1)"/><path class="cls-35" d="M88,53V85H87c0-9.91,0-19.82,0-29.73C87,54.47,86.34,53.17,88,53Z" transform="translate(-1 -1)"/><path class="cls-35" d="M85,88H53c.17-1.66,1.47-1,2.27-1,9.91,0,19.82,0,29.73,0Z" transform="translate(-1 -1)"/><path class="cls-24" d="M409,88a.77.77,0,0,1-.79,1c-1.5,0-3,0-4.5,0H96.29c-1.5,0-3,0-4.5,0A.77.77,0,0,0,91,90H90V88.5a2.38,2.38,0,0,1,.36-.35.81.81,0,0,1,.43-.14Z" transform="translate(-1 -1)"/><path class="cls-24" d="M89,91V403.71c0,1.5,0,3,0,4.5a.77.77,0,0,1-1,.79V90a5,5,0,0,1,1,.5C89.07,90.59,89,90.83,89,91Z" transform="translate(-1 -1)"/></svg>