<svg id="Layer_1" data-name="Layer 1" xmlns="http://www.w3.org/2000/svg" viewBox="0 0 500 500"><defs><style>.cls-1{fill:#fefefe;}.cls-2{fill:#fdfefd;}.cls-3{fill:#53b35f;}.cls-4{fill:#44814c;}.cls-5{fill:#99dfa2;}.cls-6{fill:#54a55e;}.cls-7{fill:#6cea7c;}.cls-8{fill:#6ceb7c;}.cls-9{fill:#72fe84;}.cls-10{fill:#71f983;}.cls-11{fill:#6ef17f;}.cls-12{fill:#73fe85;}.cls-13{fill:#6ff17f;}.cls-14{fill:#6eef7e;}.cls-15{fill:#6ff480;}</style></defs><title>FINALFINALTriangle</title><path class="cls-1" d="M1,467V1H501V462h-1c-2.05-4-4.8-7.65-6.85-11.58-4.35-8.35-9.38-16.29-13.83-24.56A33.14,33.14,0,0,0,475,419c.18-3-2.62-4-4-6v-2c-.85-1.46-1.54-2.51-2.11-3.63-1.93-3.71-4-7.41-6.18-10.9-4.39-7-8.23-14.32-12.56-21.35-3.57-5.78-6.83-11.8-10.15-17.76-1.58-2.84-3.07-5.74-4.71-8.54-3.05-5.24-6.25-10.4-9.27-15.66-1.84-3.22-3.18-6.76-5.26-9.8-4.67-6.84-8.31-14.27-12.63-21.3-3.57-5.79-6.83-11.81-10.12-17.78-1.5-2.7-2.84-5.5-4.42-8.16-3.11-5.22-6.43-10.32-9.49-15.57-1.94-3.33-3.31-7-5.39-10.25-3.7-5.77-7-11.78-10.52-17.65-1.67-2.78-3-5.77-4.64-8.57-3.46-5.9-7.37-11.57-10.44-17.67-2.66-5.28-6.15-10-8.72-15.37-1.88-3.88-4.34-7.52-6.42-11.34-2.66-4.91-5.49-9.73-8.33-14.54-3.49-5.9-7.13-11.7-10.56-17.63-1.93-3.34-3.2-7.11-5.42-10.22-3.29-4.6-5.67-9.69-8.62-14.46-4.17-6.74-8-13.67-11.9-20.57-4.32-7.71-9.05-15.19-13.15-23-1.43-2.74-2.85-5.49-4.42-8.16-3-5.1-6.18-10.09-9.16-15.21s-5.89-10.55-8.88-15.8c-.28-.49-1-.73-1.53-1.08a4.58,4.58,0,0,0-2-4l-1-1c-.64.47-1.64.82-1.86,1.44-1.39,4-4.09,7.3-6.06,11-1.54,2.87-2.88,5.85-4.64,8.57C237,60.36,234,66,230.88,71.52c-2.76,4.87-5.8,9.56-8.48,14.49-2.81,5.2-6.36,10-9.05,15.26s-5.9,10.18-8.71,15.36c-3.33,6.13-7.09,12.07-10.62,18.11-1.57,2.67-2.73,5.6-4.48,8.13a162.41,162.41,0,0,0-8.73,14.9c-2.88,5.32-6.12,10.42-9.06,15.71-3.39,6.11-7,12.14-10.72,18.08-1.72,2.75-3,5.76-4.67,8.56-3,5.1-6.2,10.08-9.15,15.21s-5.49,10.42-8.55,15.44c-3.49,5.71-6.95,11.43-10.2,17.28-1.66,3-3.25,6-5,8.93-2.9,5-6.06,9.81-8.78,14.87-2.85,5.34-6.13,10.42-9,15.72-3.36,6.12-7.05,12.1-10.66,18.11-1.59,2.65-2.67,5.63-4.43,8.14a159,159,0,0,0-8.74,14.9c-2.91,5.3-6,10.53-9.07,15.69-4.23,7.09-8.35,14.27-12.64,21.32-3.79,6.22-7.59,12.5-11,18.92-4.17,7.8-9,15.23-13.13,23-1.16,2.19-2.4,4.34-3.66,6.47-3.09,5.23-6.28,10.39-9.31,15.65-1.84,3.21-3.18,6.74-5.23,9.81C12.34,447.79,7.8,456.47,3,465Z" transform="translate(-1 -1)"/><path class="cls-2" d="M501,469v32H1V468H5c.26.33.51.94.79.95,1.5.1,3,.05,4.5.05Z" transform="translate(-1 -1)"/><path class="cls-3" d="M5,468H1v-1l2-2c3.36.09,6.12-1.63,9-3H190.84c14.82,0,29.64-.19,44.46.05s29.74-1.12,44.55.95H431.21a22.9,22.9,0,0,0,3-.05c.3,0,.54-.62.8-.95h4c.41.33.81.94,1.24,1,2.58.08,5.17,0,7.76,0,.17,1.66,1.47,1,2.27,1q17.1.06,34.19,0c3.51,0,7.07.41,10.56-1.51-.06-.72-.13-1.62-.21-2.48H493v-1c-.41-3-2-5.58-3.6-7.95-3.62-5.44-6.53-11.27-9.69-16.95-2.63-4.73-6.18-8.93-8.2-14-.19-.48-1-.72-1.51-1.07l-2-2v-2.58c-3.62-2.61-4.37-7.18-7-10.54-1.52-2-2.26-4.41-3.88-6.43-1.5-1.87-1.8-4.59-3.62-6.47s-2.22-4.42-3.58-6.5c-.53-.81-1.81-1.44-1.85-2.2-.14-2.48-1.67-4-3-5.81s-2.12-4.11-3.27-6.12c-1.46-2.57-3.36-4.94-4.51-7.63-2.56-6-7.59-10.69-9.31-17.14-2-2.05-4.09-4.1-4.19-7.27-3.62-4-5.28-9.2-8.4-13.54-1.89-2.65-3-5.9-5.38-8.24.25-2.74-1.87-4.35-3.27-6.11-1.62-2-1.85-4.56-3.29-6.72a138.62,138.62,0,0,1-8.15-14.09,23.28,23.28,0,0,0-3.78-5.56,21.62,21.62,0,0,0-1.33-3.3c-1-1.46-2.85-2.72-3-4.21-.54-4.68-5-7.22-5.79-11.64-3.66-4.35-5-10.2-9.18-14.21-.19-.18-.11-.61-.23-.9-1.48-3.74-3.88-7-5.59-10.67-1-2.19-3.53-3.7-3.4-6.6-3.46-3.91-5.26-8.84-8.1-13.14-1.9-2.88-3.21-6.14-5.67-8.65-.63-4.49-5.22-7.06-5.65-11.65-4-5.77-7.22-12-10.61-18.1-.77-1.38-2.72-2.48-2.81-3.79-.15-2.41-1.86-3.76-3-5.27-1.41-1.87-1.4-4.1-2.63-6a162.44,162.44,0,0,1-9.64-16.49,27.81,27.81,0,0,0-2.79-3.84,5.62,5.62,0,0,1-1.09-1.55c-1.12-3.92-4-6.94-5.48-10.74-.92-2.32-3.73-3.91-3.68-7-3.61-4-5.39-9.15-8.4-13.55-1.84-2.7-3.05-5.84-5.39-8.24-.64-4.49-4.64-7.27-5.8-11.62-.66-2.44-2.93-4.41-4.25-6.72-1.83-3.22-3.19-6.73-5.22-9.81s-4-6.33-5.83-9.6c-.54-1-1.66-1.7-1.92-2.7-1.17-4.49-4.2-7.94-6.32-11.89-1.46-2.72-3-5.41-4.54-8.24H253a30.51,30.51,0,0,0,1-4,48,48,0,0,0,0-5,4.58,4.58,0,0,1,2,4v3.39c1.33,2,2.73,4,3.86,6,1.87,3.38,3.25,7.07,5.4,10.25,4.64,6.85,8.16,14.35,12.66,21.28,3.71,5.71,6.76,11.85,10.07,17.81,1.51,2.71,2.73,5.59,4.46,8.14,4.82,7.1,8.73,14.72,13,22.15,3.29,5.78,6.49,11.65,9.8,17.4,3.57,6.19,7.3,12.31,10.79,18.55,1.52,2.71,3,5.43,4.59,8.1,3,5.08,6.2,10.08,9.16,15.21,1.92,3.35,3.19,7.12,5.4,10.23,4.82,6.76,8.29,14.3,12.69,21.3,3.61,5.74,6.84,11.8,10.15,17.76,1.59,2.84,3,5.75,4.67,8.56,3.07,5.24,6.29,10.39,9.32,15.65,1.84,3.21,3.14,6.78,5.22,9.81,4.7,6.82,8.33,14.26,12.66,21.3,3.55,5.79,6.84,11.8,10.13,17.77,1.5,2.71,2.81,5.52,4.39,8.17,3.11,5.23,6.43,10.33,9.49,15.58,1.94,3.33,3.25,7.06,5.4,10.24,4.63,6.86,8.16,14.35,12.66,21.29,3.69,5.71,6.76,11.84,10.06,17.81,1.42,2.57,2.42,5.42,4.13,7.77,5.17,7.08,8.58,15.19,13.48,22.47H471v2.83a16,16,0,0,0,2,2.44,7.23,7.23,0,0,0,2,.73,33.14,33.14,0,0,1,4.32,6.86c4.45,8.27,9.48,16.21,13.83,24.56C495.2,454.35,498,458,500,462l-3.33,4H366c-14.5,0-29,.18-43.49-.05s-28.76,1.11-43.08-.95h-269C9.18,467,6.35,466.13,5,468Z" transform="translate(-1 -1)"/><path class="cls-4" d="M5,468c1.35-1.87,4.18-1,5.43-3h269c14.32,2.06,28.72.71,43.08.95s29,.05,43.49.05H496.67l3.33-4h1v7H10.29c-1.5,0-3,.05-4.5-.05C5.51,468.94,5.26,468.33,5,468Z" transform="translate(-1 -1)"/><path class="cls-5" d="M12,462c-2.88,1.37-5.64,3.09-9,3,4.8-8.53,9.34-17.21,14.79-25.38,2.05-3.07,3.39-6.6,5.23-9.81,3-5.26,6.22-10.42,9.31-15.65,1.26-2.13,2.5-4.28,3.66-6.47,4.15-7.81,9-15.24,13.13-23,3.43-6.42,7.23-12.7,11-18.92,4.29-7.05,8.41-14.23,12.64-21.32,3.08-5.16,6.16-10.39,9.07-15.69a159,159,0,0,1,8.74-14.9c1.76-2.51,2.84-5.49,4.43-8.14,3.61-6,7.3-12,10.66-18.11,2.91-5.3,6.19-10.38,9-15.72,2.72-5.06,5.88-9.89,8.78-14.87,1.71-2.94,3.3-6,5-8.93,3.25-5.85,6.71-11.57,10.2-17.28,3.06-5,5.61-10.34,8.55-15.44s6.15-10.11,9.15-15.21c1.64-2.8,2.95-5.81,4.67-8.56,3.72-5.94,7.33-12,10.72-18.08,2.94-5.29,6.18-10.39,9.06-15.71a162.41,162.41,0,0,1,8.73-14.9c1.75-2.53,2.91-5.46,4.48-8.13,3.53-6,7.29-12,10.62-18.11,2.81-5.18,6-10.11,8.71-15.36S219.59,91.21,222.4,86c2.68-4.93,5.72-9.62,8.48-14.49C234,66,237,60.36,240.44,55c1.76-2.72,3.1-5.7,4.64-8.57,2-3.68,4.67-7,6.06-11,.22-.62,1.22-1,1.86-1.44l1,1a48,48,0,0,1,0,5,30.51,30.51,0,0,1-1,4c-2,.49-.33,3-2.17,3.88-1,.48-1.23,2.36-1.83,3.6a21.79,21.79,0,0,1-2.12,4.07c-4.49,5.61-7.37,12.16-10.9,18.33a131,131,0,0,1-7,11.48A9.75,9.75,0,0,0,227,92l-1,1h-2v3c-.4.24-1,.37-1.18.72A112.13,112.13,0,0,0,216,108.36c-1.62,3.34-3.62,6.5-5.52,9.7-3,5.08-6.2,10.07-9.15,15.19s-5.44,10.45-8.55,15.43c-3.71,5.94-7.17,12-10.71,18-1.57,2.66-2.76,5.56-4.45,8.13q-4.87,7.42-9.14,15.21c-1.63,3-3,6.16-5,8.9-3.51,4.81-6.08,10.15-9.1,15.23-1.65,2.79-2.87,5.85-4.65,8.55-5.13,7.8-9.36,16.11-14.07,24.15-1.8,3.08-3.5,6.22-5.31,9.29-3.07,5.22-6.42,10.3-9.22,15.67-1.88,3.58-4.44,6.71-6,10.48a60.14,60.14,0,0,1-5.26,9.3c-2.13,3.27-4.07,6.63-6,10-1.52,2.71-3.55,5.19-4.72,8-1.57,3.77-4.5,6.68-6,10.53-1,2.72-3,5.06-4.48,7.63-3,5.26-5.62,10.72-9,15.74-1.57,2.38-2.69,4.92-4.13,7.31-3.14,5.2-6.43,10.31-9.49,15.56-1.94,3.33-3.2,7.09-5.4,10.22-5.1,7.3-8.69,15.47-13.64,22.85-2.24,3.34-3.95,7-6,10.81V413H39v2c-1.5.09-.85,1.24-1,2-.4.23-1,.37-1.17.71C33.19,423.81,29.71,430,26,436c-2.68,4.34-4.58,9.11-7.66,13.22-2.41,3.22-3.47,7.28-6.24,10.33C11.65,460,12,461.17,12,462Z" transform="translate(-1 -1)"/><path class="cls-6" d="M471,413h-1.4c-4.9-7.28-8.31-15.39-13.48-22.47-1.71-2.35-2.71-5.2-4.13-7.77-3.3-6-6.37-12.1-10.06-17.81-4.5-6.94-8-14.43-12.66-21.29-2.15-3.18-3.46-6.91-5.4-10.24-3.06-5.25-6.38-10.35-9.49-15.58-1.58-2.65-2.89-5.46-4.39-8.17-3.29-6-6.58-12-10.13-17.77-4.33-7-8-14.48-12.66-21.3-2.08-3-3.38-6.6-5.22-9.81-3-5.26-6.25-10.41-9.32-15.65-1.64-2.81-3.08-5.72-4.67-8.56-3.31-6-6.54-12-10.15-17.76-4.4-7-7.87-14.54-12.69-21.3-2.21-3.11-3.48-6.88-5.4-10.23-3-5.13-6.13-10.13-9.16-15.21-1.58-2.67-3.07-5.39-4.59-8.1-3.49-6.24-7.22-12.36-10.79-18.55-3.31-5.75-6.51-11.62-9.8-17.4-4.23-7.43-8.14-15-13-22.15-1.73-2.55-2.95-5.43-4.46-8.14-3.31-6-6.36-12.1-10.07-17.81-4.5-6.93-8-14.43-12.66-21.28-2.15-3.18-3.53-6.87-5.4-10.25-1.13-2-2.53-4-3.86-6V39c.52.35,1.25.59,1.53,1.08,3,5.25,5.85,10.58,8.88,15.8s6.15,10.11,9.16,15.21c1.57,2.67,3,5.42,4.42,8.16,4.1,7.84,8.83,15.32,13.15,23,3.87,6.9,7.73,13.83,11.9,20.57,2.95,4.77,5.33,9.86,8.62,14.46,2.22,3.11,3.49,6.88,5.42,10.22,3.43,5.93,7.07,11.73,10.56,17.63,2.84,4.81,5.67,9.63,8.33,14.54,2.08,3.82,4.54,7.46,6.42,11.34,2.57,5.33,6.06,10.09,8.72,15.37,3.07,6.1,7,11.77,10.44,17.67,1.65,2.8,3,5.79,4.64,8.57,3.53,5.87,6.82,11.88,10.52,17.65,2.08,3.24,3.45,6.92,5.39,10.25,3.06,5.25,6.38,10.35,9.49,15.57,1.58,2.66,2.92,5.46,4.42,8.16,3.29,6,6.55,12,10.12,17.78,4.32,7,8,14.46,12.63,21.3,2.08,3,3.42,6.58,5.26,9.8,3,5.26,6.22,10.42,9.27,15.66,1.64,2.8,3.13,5.7,4.71,8.54,3.32,6,6.58,12,10.15,17.76,4.33,7,8.17,14.35,12.56,21.35,2.19,3.49,4.25,7.19,6.18,10.9.57,1.12,1.26,2.17,2.11,3.63Z" transform="translate(-1 -1)"/><path class="cls-6" d="M475,419a7.23,7.23,0,0,1-2-.73,16,16,0,0,1-2-2.44V413C472.38,415,475.18,416,475,419Z" transform="translate(-1 -1)"/><path class="cls-6" d="M254,35l-1-1Z" transform="translate(-1 -1)"/><path class="cls-7" d="M227,92a9.75,9.75,0,0,1,2-6.64,131,131,0,0,0,7-11.48c3.53-6.17,6.41-12.72,10.9-18.33A21.79,21.79,0,0,0,249,51.48c.6-1.24.86-3.12,1.83-3.6C252.67,47,251,44.49,253,44h1.2c1.56,2.83,3.08,5.52,4.54,8.24,2.12,3.95,5.15,7.4,6.32,11.89.26,1,1.38,1.74,1.92,2.7,1.83,3.27,3.77,6.46,5.83,9.6S276.2,83,278,86.24c1.32,2.31,3.59,4.28,4.25,6.72,1.16,4.35,5.16,7.13,5.8,11.62,2.34,2.4,3.55,5.54,5.39,8.24,3,4.4,4.79,9.54,8.4,13.55-.05,3,2.76,4.64,3.68,7,1.5,3.8,4.36,6.82,5.48,10.74a5.62,5.62,0,0,0,1.09,1.55,27.81,27.81,0,0,1,2.79,3.84A162.44,162.44,0,0,0,324.55,166c1.23,1.87,1.22,4.1,2.63,6,1.12,1.51,2.83,2.86,3,5.27.09,1.31,2,2.41,2.81,3.79,3.39,6.11,6.61,12.33,10.61,18.1.43,4.59,5,7.16,5.65,11.65,2.46,2.51,3.77,5.77,5.67,8.65,2.84,4.3,4.64,9.23,8.1,13.14-.13,2.9,2.36,4.41,3.4,6.6,1.71,3.66,4.11,6.93,5.59,10.67.12.29,0,.72.23.9,4.2,4,5.52,9.86,9.18,14.21.77,4.42,5.25,7,5.79,11.64.17,1.49,2.05,2.75,3,4.21a21.62,21.62,0,0,1,1.33,3.3,23.28,23.28,0,0,1,3.78,5.56,138.62,138.62,0,0,0,8.15,14.09c1.44,2.16,1.67,4.68,3.29,6.72,1.4,1.76,3.52,3.37,3.27,6.11,2.43,2.34,3.49,5.59,5.38,8.24,3.12,4.34,4.78,9.55,8.4,13.54.1,3.17,2.15,5.22,4.19,7.27,1.72,6.45,6.75,11.11,9.31,17.14,1.15,2.69,3.05,5.06,4.51,7.63,1.15,2,1.91,4.28,3.27,6.12s2.87,3.33,3,5.81c0,.76,1.32,1.39,1.85,2.2,1.36,2.08,1.82,4.69,3.58,6.5s2.12,4.6,3.62,6.47c1.62,2,2.36,4.46,3.88,6.43,2.6,3.36,3.35,7.93,7,10.54V417h-3a2.39,2.39,0,0,0-1.88-2.95,41.88,41.88,0,0,0-7.55-1c-6.31-.14-12.63-.05-18.94-.05H412.37c-1.87-3-3.92-5.59-5.3-8.53-2.52-5.33-5.93-10.14-8.55-15.4-.24-.48-1-.72-1.52-1.07-.91-2.58-1.28-5.46-4-7a5.89,5.89,0,0,0-.36-1.82c-1.44-2.53-3-5-4.46-7.51-2.91-5.19-5.74-10.43-8.67-15.61-.28-.48-1-.71-1.51-1.06-.91-2.58-1.28-5.46-4-7a5.67,5.67,0,0,0-.37-1.83c-2.75-4.82-5.6-9.58-8.34-14.4-3-5.21-5.81-10.49-8.77-15.7-.28-.49-1-.72-1.52-1.07-.91-2.58-1.28-5.46-4-7a5.89,5.89,0,0,0-.36-1.82c-1.44-2.53-3-5-4.46-7.51-2.91-5.19-5.74-10.43-8.67-15.61-.28-.48-1-.71-1.51-1.06-.91-2.58-1.28-5.46-4-7a5.89,5.89,0,0,0-.36-1.82c-1.44-2.53-3-5-4.46-7.51-2.91-5.19-5.74-10.43-8.67-15.61-.28-.48-1-.71-1.51-1.06-.91-2.58-1.28-5.46-4-7a5.67,5.67,0,0,0-.37-1.83c-2.75-4.82-5.6-9.58-8.34-14.4-3-5.21-5.81-10.49-8.77-15.7-.28-.49-1-.72-1.52-1.07-.91-2.58-1.28-5.46-4-7a5.89,5.89,0,0,0-.36-1.82c-1.44-2.53-3-5-4.46-7.51-2.91-5.19-5.74-10.43-8.67-15.61-.28-.48-1-.71-1.51-1.06-.91-2.58-1.28-5.46-4-7a5.89,5.89,0,0,0-.36-1.82c-1.44-2.53-3-5-4.46-7.51-2.91-5.19-5.74-10.43-8.67-15.61-.28-.48-1-.71-1.51-1.06-.91-2.58-1.28-5.46-4-7a5.67,5.67,0,0,0-.37-1.83c-2.75-4.82-5.6-9.58-8.34-14.4-3-5.21-5.81-10.49-8.77-15.7-.28-.49-1-.72-1.52-1.07-.91-2.58-1.28-5.46-4-7A4.58,4.58,0,0,0,227,92Z" transform="translate(-1 -1)"/><path class="cls-8" d="M12,462c0-.83-.35-2,.06-2.43,2.77-3.05,3.83-7.11,6.24-10.33,3.08-4.11,5-8.88,7.66-13.22,3.75-6,7.23-12.21,10.87-18.31.2-.34.77-.48,1.17-.71H402a12.22,12.22,0,0,1,3.48.06c2.21.69,4.75.86,6.21,3.11a30.57,30.57,0,0,1,2.3,3.54c2.89,6.21,6.7,11.89,10,17.86,1,1.88,1.69,4,2.93,5.77,2.82,4,4.86,8.34,7.35,12.47A10.24,10.24,0,0,1,435,462c-.26.33-.5.92-.8.95a22.9,22.9,0,0,1-3,.05H279.85c-14.81-2.07-29.7-.71-44.55-.95s-29.64-.05-44.46-.05H12Z" transform="translate(-1 -1)"/><path class="cls-9" d="M465,417h3l2,2a7.66,7.66,0,0,0,.63,3.24c2.64,4.7,4.58,9.86,7.63,14.25,1.9,2.73,3.1,5.78,5,8.48,3.15,4.39,5.64,9.25,8.47,14H493v3h-5.28c-12.31,0-24.62,0-36.93.05-.92,0-2.44-1-2.79.95-2.59,0-5.18,0-7.76,0-.43,0-.83-.63-1.24-1a1.33,1.33,0,0,0,.49,0c.14-.06.37-.26.34-.34-1.21-3.81-3.5-7.11-5.37-10.59-2.79-5.18-6.07-10.11-9.07-15.19-2.44-4.13-4.31-8.61-7.36-12.4-.24-.3,0-1,0-1.47v-5h47Z" transform="translate(-1 -1)"/><path class="cls-10" d="M428,417H418v5c-.67-.33-1.33-.67-2-1,0-.63-.08-1.22-.14-2l-1.88.21c.05.67.09,1.1.14,1.7.66.05,1.26.1,1.88.13a9.48,9.48,0,0,0,.57,3.22c1.18,2.56,3,4.71,4.28,7.15,1.81,3.38,3.19,7,5.31,10.18A214.06,214.06,0,0,1,438,462h-3a10.24,10.24,0,0,0-.73-2.19c-2.49-4.13-4.53-8.52-7.35-12.47-1.24-1.74-1.89-3.89-2.93-5.77-3.32-6-7.13-11.65-10-17.86a30.57,30.57,0,0,0-2.3-3.54c-1.46-2.25-4-2.42-6.21-3.11A12.22,12.22,0,0,0,402,417H38c.15-.76-.5-1.91,1-2H405.42c.12,0,.27-.17.37-.29a2.52,2.52,0,0,0,.21-.4c.18-1.75-1.1-1.23-2-1.3.33-1,.67-2,1-3,1.56-.11,1.83,3,4.23,1.45a58.84,58.84,0,0,1-3.2-5c-2-4-4.26-7.78-6.55-11.59-1.22-2-2.92-4.11-2.48-6.84.52.35,1.28.59,1.52,1.07,2.62,5.26,6,10.07,8.55,15.4,1.38,2.94,3.43,5.57,5.3,8.53h24.26c6.31,0,12.63-.09,18.94.05a41.88,41.88,0,0,1,7.55,1A2.39,2.39,0,0,1,465,417H430l-.76-1Z" transform="translate(-1 -1)"/><path class="cls-7" d="M448,463c.35-1.95,1.87-.95,2.79-.95,12.31-.07,24.62-.05,36.93-.05H493v-2h1.81c.08.86.15,1.76.21,2.48-3.49,1.92-7,1.51-10.56,1.51q-17.08,0-34.19,0C449.47,464,448.17,464.66,448,463Z" transform="translate(-1 -1)"/><path class="cls-11" d="M416,421l2,1c0,.5-.21,1.17,0,1.47,3.05,3.79,4.92,8.27,7.36,12.4,3,5.08,6.28,10,9.07,15.19,1.87,3.48,4.16,6.78,5.37,10.59,0,.08-.2.28-.34.34a1.33,1.33,0,0,1-.49,0h-1a214.06,214.06,0,0,0-11.82-20.43c-2.12-3.15-3.5-6.8-5.31-10.18-1.32-2.44-3.1-4.59-4.28-7.15A10.06,10.06,0,0,1,416,421Z" transform="translate(-1 -1)"/><path class="cls-7" d="M493,459h-1.24c-2.83-4.78-5.32-9.64-8.47-14-1.93-2.7-3.13-5.75-5-8.48-3.05-4.39-5-9.55-7.63-14.25A7.66,7.66,0,0,1,470,419c.52.35,1.32.59,1.51,1.07,2,5.1,5.57,9.3,8.2,14,3.16,5.68,6.07,11.51,9.69,16.95C491,453.42,492.59,456,493,459Z" transform="translate(-1 -1)"/><path class="cls-12" d="M405,410c-.33,1-.67,2-1,3H41v-2.66c2.1-3.78,3.81-7.47,6-10.81,5-7.38,8.54-15.55,13.64-22.85,2.2-3.13,3.46-6.89,5.4-10.22,3.06-5.25,6.35-10.36,9.49-15.56,1.44-2.39,2.56-4.93,4.13-7.31,3.33-5,6-10.48,9-15.74,1.46-2.57,3.46-4.91,4.48-7.63,1.45-3.85,4.38-6.76,6-10.53,1.17-2.84,3.2-5.32,4.72-8,1.91-3.39,3.85-6.75,6-10a60.14,60.14,0,0,0,5.26-9.3c1.59-3.77,4.15-6.9,6-10.48,2.8-5.37,6.15-10.45,9.22-15.67,1.81-3.07,3.51-6.21,5.31-9.29,4.71-8,8.94-16.35,14.07-24.15,1.78-2.7,3-5.76,4.65-8.55,3-5.08,5.59-10.42,9.1-15.23,2-2.74,3.37-5.91,5-8.9q4.26-7.8,9.14-15.21c1.69-2.57,2.88-5.47,4.45-8.13,3.54-6,7-12.11,10.71-18,3.11-5,5.62-10.33,8.55-15.43s6.12-10.11,9.15-15.19c1.9-3.2,3.9-6.36,5.52-9.7a112.13,112.13,0,0,1,6.87-11.64c.22-.35.78-.48,1.18-.72.4.24,1,.37,1.18.72,3.63,6,7.29,12,10.79,18,1.86,3.2,3.09,6.81,5.2,9.81,4.78,6.78,8.31,14.27,12.68,21.29,3.59,5.76,6.84,11.79,10.15,17.75,1.57,2.84,3,5.75,4.67,8.56,3.06,5.23,6.28,10.38,9.31,15.64,1.84,3.21,3.17,6.74,5.22,9.81,3.9,5.83,7.13,12.05,10.77,18,1.61,2.64,2.82,5.51,4.38,8.17,2.13,3.63,4.78,7,6.56,10.78,2.53,5.36,6,10.11,8.7,15.38,3.08,6.09,7,11.77,10.36,17.7,1.84,3.22,3.07,6.82,5.16,9.84,4.08,5.91,7.39,12.25,10.87,18.5,1.52,2.71,3,5.42,4.61,8.08,3,5.08,6.19,10.08,9.14,15.21,1.93,3.34,3.19,7.11,5.41,10.23,4.81,6.75,8.28,14.29,12.68,21.28,3.62,5.74,6.85,11.79,10.15,17.75,1.49,2.71,2.64,5.63,4.34,8.19,3.19,4.8,5.74,10,8.8,14.85,2.66,4.22,4.82,8.72,7.63,12.86C403.8,406,405.15,407.8,405,410Z" transform="translate(-1 -1)"/><path class="cls-13" d="M405,410c.15-2.2-1.2-4-2.24-5.54-2.81-4.14-5-8.64-7.63-12.86-3.06-4.87-5.61-10.05-8.8-14.85-1.7-2.56-2.85-5.48-4.34-8.19-3.3-6-6.53-12-10.15-17.75-4.4-7-7.87-14.53-12.68-21.28-2.22-3.12-3.48-6.89-5.41-10.23-2.95-5.13-6.11-10.13-9.14-15.21-1.59-2.66-3.09-5.37-4.61-8.08-3.48-6.25-6.79-12.59-10.87-18.5-2.09-3-3.32-6.62-5.16-9.84-3.4-5.93-7.28-11.61-10.36-17.7-2.67-5.27-6.17-10-8.7-15.38-1.78-3.78-4.43-7.15-6.56-10.78-1.56-2.66-2.77-5.53-4.38-8.17-3.64-6-6.87-12.21-10.77-18-2.05-3.07-3.38-6.6-5.22-9.81-3-5.26-6.25-10.41-9.31-15.64-1.64-2.81-3.1-5.72-4.67-8.56-3.31-6-6.56-12-10.15-17.75-4.37-7-7.9-14.51-12.68-21.29-2.11-3-3.34-6.61-5.2-9.81-3.5-6.06-7.16-12-10.79-18-.21-.35-.78-.48-1.18-.72V93h2c.32.49.94,1,.91,1.46-.11,1.75,1,1.56,2.09,1.54-.41,2.8,1.69,4.68,2.51,7H233c.15,1.08-.07,2.1.62,3.24,2.07,3.41,3.48,7.25,5.78,10.48,1.66,2.32,2.66,4.9,4.09,7.28,2.4,4,4.77,7.95,7.2,12H252c-.41,2.8,1.69,4.68,2.51,7H256a8.4,8.4,0,0,0,.37,2.8c2,3.8,4.07,7.55,6.21,11.26,2.3,4,4.7,7.92,7.1,11.94H271c-.41,2.8,1.69,4.68,2.51,7H275a8.4,8.4,0,0,0,.37,2.8c2,3.8,4.07,7.55,6.21,11.26,2.3,4,4.7,7.92,7.1,11.94H290c-.41,2.8,1.69,4.68,2.51,7H294c.15,1.08-.07,2.1.62,3.24,2.07,3.41,3.48,7.25,5.78,10.48,1.66,2.32,2.66,4.9,4.09,7.28,2.4,4,4.77,7.95,7.2,12H313c-.41,2.8,1.69,4.68,2.51,7H317a8.4,8.4,0,0,0,.37,2.8c2,3.8,4.07,7.55,6.21,11.26,2.3,4,4.7,7.92,7.1,11.94H332c-.41,2.8,1.69,4.68,2.51,7H336a8.4,8.4,0,0,0,.37,2.8c2,3.8,4.07,7.55,6.21,11.26,2.3,4,4.7,7.92,7.1,11.94H351c-.41,2.8,1.69,4.68,2.51,7H355c.15,1.08-.07,2.1.62,3.24,2.07,3.41,3.48,7.25,5.78,10.48,1.66,2.32,2.66,4.9,4.09,7.28,2.4,4,4.77,7.95,7.2,12H374c-.41,2.8,1.69,4.68,2.51,7H378a8.4,8.4,0,0,0,.37,2.8c2,3.8,4.07,7.55,6.21,11.26,2.3,4,4.7,7.92,7.1,11.94H393c-.41,2.8,1.69,4.68,2.51,7H397c-.44,2.73,1.26,4.81,2.48,6.84,2.29,3.81,4.54,7.62,6.55,11.59a58.84,58.84,0,0,0,3.2,5C406.83,413,406.56,409.89,405,410Z" transform="translate(-1 -1)"/><path class="cls-14" d="M41,413H404c.9.07,2.18-.45,2,1.3a2.52,2.52,0,0,1-.21.4c-.1.12-.25.29-.37.29H39v-2Z" transform="translate(-1 -1)"/><path class="cls-10" d="M229,96c-1.08,0-2.2.21-2.09-1.54,0-.47-.59-1-.91-1.46l1-1A4.58,4.58,0,0,1,229,96Z" transform="translate(-1 -1)"/><path class="cls-10" d="M252,136h-1.31c-2.43-4.05-4.8-8-7.2-12-1.43-2.38-2.43-5-4.09-7.28-2.3-3.23-3.71-7.07-5.78-10.48-.69-1.14-.47-2.16-.62-3.24.52.35,1.24.58,1.52,1.07,3,5.21,5.81,10.49,8.77,15.7,2.74,4.82,5.59,9.58,8.34,14.4A5.67,5.67,0,0,1,252,136Z" transform="translate(-1 -1)"/><path class="cls-10" d="M313,242h-1.31c-2.43-4.05-4.8-8-7.2-12-1.43-2.38-2.43-5-4.09-7.28-2.3-3.23-3.71-7.07-5.78-10.48-.69-1.14-.47-2.16-.62-3.24.52.35,1.24.58,1.52,1.07,3,5.21,5.81,10.49,8.77,15.7,2.74,4.82,5.59,9.58,8.34,14.4A5.67,5.67,0,0,1,313,242Z" transform="translate(-1 -1)"/><path class="cls-10" d="M374,348h-1.31c-2.43-4.05-4.8-8-7.2-12-1.43-2.38-2.43-5-4.09-7.28-2.3-3.23-3.71-7.07-5.78-10.48-.69-1.14-.47-2.16-.62-3.24.52.35,1.24.58,1.52,1.07,3,5.21,5.81,10.49,8.77,15.7,2.74,4.82,5.59,9.58,8.34,14.4A5.67,5.67,0,0,1,374,348Z" transform="translate(-1 -1)"/><path class="cls-10" d="M290,202h-1.32c-2.4-4-4.8-7.95-7.1-11.94-2.14-3.71-4.22-7.46-6.21-11.26A8.4,8.4,0,0,1,275,176c.51.35,1.23.58,1.51,1.06,2.93,5.18,5.76,10.42,8.67,15.61,1.43,2.53,3,5,4.46,7.51A5.89,5.89,0,0,1,290,202Z" transform="translate(-1 -1)"/><path class="cls-10" d="M351,308h-1.32c-2.4-4-4.8-7.95-7.1-11.94-2.14-3.71-4.22-7.46-6.21-11.26A8.4,8.4,0,0,1,336,282c.51.35,1.23.58,1.51,1.06,2.93,5.18,5.76,10.42,8.67,15.61,1.43,2.53,3,5,4.46,7.51A5.89,5.89,0,0,1,351,308Z" transform="translate(-1 -1)"/><path class="cls-10" d="M332,275h-1.32c-2.4-4-4.8-7.95-7.1-11.94-2.14-3.71-4.22-7.46-6.21-11.26A8.4,8.4,0,0,1,317,249c.51.35,1.23.58,1.51,1.06,2.93,5.18,5.76,10.42,8.67,15.61,1.43,2.53,3,5,4.46,7.51A5.89,5.89,0,0,1,332,275Z" transform="translate(-1 -1)"/><path class="cls-10" d="M393,381h-1.32c-2.4-4-4.8-7.95-7.1-11.94-2.14-3.71-4.22-7.46-6.21-11.26A8.4,8.4,0,0,1,378,355c.51.35,1.23.58,1.51,1.06,2.93,5.18,5.76,10.42,8.67,15.61,1.43,2.53,3,5,4.46,7.51A5.89,5.89,0,0,1,393,381Z" transform="translate(-1 -1)"/><path class="cls-10" d="M271,169h-1.32c-2.4-4-4.8-7.95-7.1-11.94-2.14-3.71-4.22-7.46-6.21-11.26A8.4,8.4,0,0,1,256,143c.51.35,1.23.58,1.51,1.06,2.93,5.18,5.76,10.42,8.67,15.61,1.43,2.53,3,5,4.46,7.51A5.89,5.89,0,0,1,271,169Z" transform="translate(-1 -1)"/><path class="cls-10" d="M336,282h-1.49c-.82-2.32-2.92-4.2-2.51-7C334.72,276.54,335.09,279.42,336,282Z" transform="translate(-1 -1)"/><path class="cls-10" d="M397,388h-1.49c-.82-2.32-2.92-4.2-2.51-7C395.72,382.54,396.09,385.42,397,388Z" transform="translate(-1 -1)"/><path class="cls-10" d="M294,209h-1.49c-.82-2.32-2.92-4.2-2.51-7C292.72,203.54,293.09,206.42,294,209Z" transform="translate(-1 -1)"/><path class="cls-10" d="M275,176h-1.49c-.82-2.32-2.92-4.2-2.51-7C273.72,170.54,274.09,173.42,275,176Z" transform="translate(-1 -1)"/><path class="cls-10" d="M317,249h-1.49c-.82-2.32-2.92-4.2-2.51-7C315.72,243.54,316.09,246.42,317,249Z" transform="translate(-1 -1)"/><path class="cls-10" d="M256,143h-1.49c-.82-2.32-2.92-4.2-2.51-7C254.72,137.54,255.09,140.42,256,143Z" transform="translate(-1 -1)"/><path class="cls-10" d="M233,103h-1.49c-.82-2.32-2.92-4.2-2.51-7C231.72,97.54,232.09,100.42,233,103Z" transform="translate(-1 -1)"/><path class="cls-10" d="M378,355h-1.49c-.82-2.32-2.92-4.2-2.51-7C376.72,349.54,377.09,352.42,378,355Z" transform="translate(-1 -1)"/><path class="cls-10" d="M355,315h-1.49c-.82-2.32-2.92-4.2-2.51-7C353.72,309.54,354.09,312.42,355,315Z" transform="translate(-1 -1)"/><path class="cls-15" d="M428,417l1.24-1,.76,1Z" transform="translate(-1 -1)"/><path class="cls-11" d="M416,421l-1.9-.15c-.05-.6-.09-1-.14-1.7l1.88-.21C415.94,419.8,416,420.39,416,421Z" transform="translate(-1 -1)"/></svg>