<svg id="Layer_1" data-name="Layer 1" xmlns="http://www.w3.org/2000/svg" viewBox="0 0 499.64 499.82"><defs><style>.cls-1{fill:#fefefe;}.cls-2{fill:#61c96e;}.cls-3{fill:#3c7a44;}.cls-4{fill:#9edfa6;}.cls-5{fill:#85eb93;}.cls-6{fill:#53a65d;}.cls-7{fill:#42874b;}.cls-8{fill:#73fe84;}.cls-9{fill:#6deb7d;}</style></defs><title>FINALFINALHexagon</title><path class="cls-1" d="M490.82,454H-8.82V-45.82H490.82ZM357,9.76l-2.91-.53A11,11,0,0,0,352.64,9Q240.7,9,128.75,9.09a7.55,7.55,0,0,0-5.34,3.17c-4.54,7.17-8.66,14.59-12.91,21.94Q74.13,97,37.75,159.92C29,175,20.2,190.13,11.51,205.28c-1.09,1.89-3.55,4.21.34,6A2.64,2.64,0,0,0,12,212c.32,1.59.26,3.4,1,4.73Q32,249.89,51.1,283,87.49,346,123.92,409.12l2.15,1.63c1,.06,2,.16,3,.16Q241,411,353,411.1c3.21,0,4.63-1.28,6.08-3.81q34.6-60.35,69.38-120.59,21.19-36.69,42.77-73.16c1.44-2.45,2.08-4.42-.27-6.51-.58-1.18-1.09-2.39-1.75-3.53q-23.51-40.87-47.06-81.73Q389.64,65.73,357,9.76Z" transform="translate(8.82 45.82)"/><path class="cls-2" d="M123.92,409.12Q87.52,346,51.1,283,32,249.86,13,216.71c-.76-1.33-.7-3.14-1-4.73l3,0c4,7.27,7.82,14.6,11.92,21.78q15.92,27.88,32,55.65c10.61,18.4,21.29,36.75,31.85,55.18,10,17.41,20,34.83,29.71,52.39,2.88,5.22,5.91,7.44,12.57,7.28,27-.66,53.93-.27,80.9-.26h2l3,0c4.12.31,8.24.89,12.37.9,38.93.07,77.86,0,116.8.14a6.91,6.91,0,0,0,6.76-3.84q17-29.14,34.1-58.26l1.91,0c-3.23,6.24-6.28,12.57-9.71,18.7-5.35,9.57-10.79,19.11-16.52,28.47-3.57,5.83-7.75,11.3-11.66,16.93l-2,.94H219a19,19,0,0,0-4.19-.94c-27.48-.07-55-.13-82.43,0C129.56,407.08,126.74,408.4,123.92,409.12Z" transform="translate(8.82 45.82)"/><path class="cls-3" d="M219,408H351l2-.94c3.91-5.63,8.09-11.1,11.66-16.93,5.73-9.36,11.17-18.9,16.52-28.47,3.43-6.13,6.48-12.46,9.71-18.7l1.85-3,2.47-4.75,3.64-6.27a4.2,4.2,0,0,0,.2-.85c.94-1.38,1.89-2.75,2.83-4.12l1.86-3c.82-1.58,1.64-3.17,2.47-4.75q1.81-3.13,3.64-6.27a4.2,4.2,0,0,0,.2-.85l2.83-4.13,1.85-3,2.48-4.75c.53-.37,1.28-.6,1.58-1.11q12.93-22.2,25.72-44.47c.19-.32-.35-1.06-.56-1.61a9,9,0,0,1,.1-.91c2.62-3.84,5.51-7.53,7.81-11.55,3.63-6.37,6.86-13,10.26-19.46a3.25,3.25,0,0,0,.12-.82l4.81-6.2q1.94-2,3.86-4c2.35,2.09,1.71,4.06.27,6.51q-21.49,36.51-42.77,73.16Q393.6,346.93,359,407.29c-1.45,2.53-2.87,3.81-6.08,3.81q-111.94-.21-223.9-.19c-1,0-2-.1-3-.16,2.34-.58,4.68-1.67,7-1.68,26.75-.12,53.5-.05,80.25-.11A32.7,32.7,0,0,0,219,408Z" transform="translate(8.82 45.82)"/><path class="cls-4" d="M11.85,211.24c-3.89-1.75-1.43-4.07-.34-6C20.2,190.13,29,175,37.75,159.92Q74.14,97.06,110.5,34.2c4.25-7.35,8.37-14.77,12.91-21.94a7.55,7.55,0,0,1,5.34-3.17Q240.7,8.88,352.64,9a11,11,0,0,1,1.48.21l-.33,2.71c-2.45.35-4.9,1-7.34,1-29.48-.8-58.95,0-88.49-1.44-40.54-2-81.25-.39-121.88-.62-5.75,0-9,2.54-11.48,7-3,5.19-5.83,10.44-8.85,15.59q-23.41,40-46.86,79.88Q40.3,162.23,11.85,211.24Z" transform="translate(8.82 45.82)"/><path class="cls-5" d="M11.85,211.24q28.51-49,57-97.94,23.35-40,46.86-79.88c3-5.15,5.88-10.4,8.85-15.59,2.53-4.43,5.73-7,11.48-7,40.63.23,81.34-1.37,121.88.62,29.54,1.46,59,.64,88.49,1.44,2.44.06,4.89-.63,7.34-1L354,14a41.59,41.59,0,0,1-6.29.95q-39.85.11-79.71.06h-5q-64.66,0-129.33-.09c-3.64,0-5.7,1.22-7.47,4.41C119.79,31,113.12,42.43,106.45,53.9,93.87,75.55,81.18,97.15,68.64,118.83,66.18,123.07,64.19,127.6,62,132l-2,2,0,2c-1.49,1.74-3.29,3.28-4.43,5.23-5.79,9.95-11.39,20-17.11,30Q26.76,191.65,15,212l-3,0A2.64,2.64,0,0,1,11.85,211.24Z" transform="translate(8.82 45.82)"/><path class="cls-6" d="M470.92,207q-1.92,2-3.86,4c-.54-2.73-.44-5.81-1.73-8.11-9.34-16.65-19-33.13-28.5-49.67q-17.9-31.07-35.78-62.14c-12.1-21-24.41-41.88-36.19-63-3.2-5.75-8.84-10.7-7.83-18.33q32.55,56,65.08,112,23.63,40.81,47.06,81.73C469.83,204.64,470.34,205.85,470.92,207Z" transform="translate(8.82 45.82)"/><path class="cls-2" d="M357,9.76c-1,7.63,4.63,12.58,7.83,18.33C376.64,49.26,389,70.14,401.05,91.14Q419,122.2,436.83,153.28c9.52,16.54,19.16,33,28.5,49.67,1.29,2.3,1.19,5.38,1.73,8.11l-4.81,6.2c.56-1.7,1.48-3.37,1.61-5.09.18-2.64.71-5.82-.45-7.89-14.22-25.24-28.71-50.34-43.17-75.44-11.49-20-23.08-39.85-34.59-59.79Q369.78,41.56,354,14l-.21-2.06.33-2.71Z" transform="translate(8.82 45.82)"/><path class="cls-7" d="M219,408a32.7,32.7,0,0,1-5.66,1c-26.75.06-53.5,0-80.25.11-2.34,0-4.68,1.1-7,1.68l-2.15-1.63c2.82-.72,5.64-2,8.46-2.05,27.47-.15,55-.09,82.43,0A19,19,0,0,1,219,408Z" transform="translate(8.82 45.82)"/><path class="cls-8" d="M62,132c2.2-4.39,4.19-8.92,6.65-13.16C81.18,97.15,93.87,75.55,106.45,53.9c6.67-11.47,13.34-22.94,19.77-34.56,1.77-3.19,3.83-4.42,7.47-4.41Q198.36,15.1,263,15q-3,7-6,14h0L246,48h0L235,67h0c-3.22,5.15-6.69,10.18-9.5,15.55-.79,1.5-.12,4.24.71,6a121.26,121.26,0,0,0,6.5,11.74c4,6.61,8.19,13.13,12.29,19.68h0c2.06,4.14,3.91,8.41,6.25,12.39,4.09,7,8.48,13.75,12.75,20.61h0l15,26h0c2.06,4.14,3.91,8.41,6.25,12.39,4.09,7,8.48,13.75,12.75,20.61h0c2.64,5.13,5.12,10.35,8,15.36,2.09,3.69,4.67,7.11,7,10.64h0c2.06,4.14,3.91,8.41,6.25,12.39,4.09,7,8.48,13.75,12.75,20.61h0c2.37,4.53,4.3,9.4,7.32,13.45,1.46,2,5,3.36,7.57,3.4,22,.26,44,.12,65.94.19a40.45,40.45,0,0,1,6.3,1q-1.08,3-2.17,5.94c-.65,1-1.31,2-2,3l-1,2-3,5-.93,4.09a4.2,4.2,0,0,1-.2.85L406,314c-.65,1-1.31,2-2,3l-1,2-3,5-.93,4.09a4.2,4.2,0,0,1-.2.85L395,333c-.65,1-1.31,2-2,3l-1,2c-1,1.66-2,3.33-3,5q-17.06,29.13-34.1,58.26a6.91,6.91,0,0,1-6.76,3.84c-38.94-.14-77.87-.07-116.8-.14-4.13,0-8.25-.59-12.37-.9L225,391h0l11-19h0l11-19h0c3.22-5.15,6.69-10.18,9.5-15.55.79-1.5.12-4.24-.71-6a121.26,121.26,0,0,0-6.5-11.74c-4-6.61-8.19-13.13-12.29-19.68h0c-2.64-5.13-5.12-10.35-8-15.36-2.09-3.69-4.67-7.11-7-10.64h0c-2.06-4.14-3.91-8.41-6.25-12.39-4.09-7-8.48-13.75-12.75-20.61h0c-2.06-4.14-3.91-8.41-6.25-12.39-4.09-7-8.48-13.75-12.75-20.61h0c-2.64-5.13-5.12-10.35-8-15.36-2.09-3.69-4.67-7.1-7-10.64h0c-2.06-4.14-3.91-8.41-6.25-12.39-4.09-7-8.48-13.75-12.75-20.61h0c-1.55-3.09-3.3-6.11-4.61-9.3-2.41-5.91-6.6-7.89-12.94-7.81C109,132.17,85.47,132,62,132Z" transform="translate(8.82 45.82)"/><path class="cls-9" d="M15,212q11.71-20.4,23.43-40.8c5.72-10,11.32-20.06,17.11-30,1.14-2,2.94-3.49,4.43-5.23,4.79.34,9.58.94,14.36,1,20,.11,40,0,60,.18,2.24,0,5.48,1.3,6.54,3,7.78,12.75,15.14,25.76,22.58,38.72q23.46,40.82,46.89,81.64c13.84,24,27.82,48,41.57,72a6.5,6.5,0,0,1,0,5.44c-6.08,10.86-12.49,21.54-18.7,32.33C226.7,381.54,220.36,392.8,214,404c-27,0-53.95-.4-80.9.26-6.66.16-9.69-2.06-12.57-7.28-9.73-17.56-19.72-35-29.71-52.39-10.56-18.43-21.24-36.78-31.85-55.18s-21.41-37.06-32-55.65C22.82,226.62,19,219.29,15,212Z" transform="translate(8.82 45.82)"/><path class="cls-8" d="M214,404c6.39-11.24,12.73-22.5,19.18-33.7,6.21-10.79,12.62-21.47,18.7-32.33a6.5,6.5,0,0,0,0-5.44c-13.75-24.07-27.73-48-41.57-72q-23.5-40.78-46.89-81.64c-7.44-13-14.8-26-22.58-38.72-1.06-1.74-4.3-3-6.54-3-20-.23-40-.07-60-.18-4.78,0-9.57-.63-14.36-1,0-.65,0-1.31,0-2,24.26,0,48.52.17,72.77-.14,5.77-.07,8.8,2.34,11.28,7,1.55,2.93,3.93,5.42,5.94,8.11h0a26.36,26.36,0,0,0,1.63,5.12c3.38,6.07,6.84,12.1,10.48,18,2.09,3.42,4.58,6.59,6.89,9.86h0c2.34,4.84,4.44,9.83,7.11,14.5,2.29,4,5.24,7.68,7.89,11.5h0a26.36,26.36,0,0,0,1.63,5.12c3.38,6.07,6.84,12.1,10.48,18,2.09,3.42,4.58,6.59,6.89,9.86h0a25.69,25.69,0,0,0,1.63,5.12c3.38,6.07,6.84,12.1,10.48,18,2.09,3.42,4.58,6.59,6.89,9.86h0c2.34,4.84,4.44,9.83,7.11,14.5,2.29,4,5.24,7.68,7.89,11.5h0c.67,2,1.06,4.19,2.08,6,4.55,8.08,9.25,16.07,14,24.05,2,3.4,2.54,6.37.08,10.1-2.59,3.92-4.13,8.53-6.12,12.84h0l-11,19h0l-11,19h0a14.31,14.31,0,0,0-2.7,2.49c-2.19,3.45-4.2,7-6.29,10.54Z" transform="translate(8.82 45.82)"/><path class="cls-9" d="M216,404c2.09-3.52,4.1-7.09,6.29-10.54A14.31,14.31,0,0,1,225,391l-6,13.05Z" transform="translate(8.82 45.82)"/><path class="cls-9" d="M389,343c1-1.67,2-3.34,3-5,.25.65.51,1.3.77,1.95l-1.85,3Z" transform="translate(8.82 45.82)"/><path class="cls-7" d="M353,407.05l-2,.94Z" transform="translate(8.82 45.82)"/><path class="cls-9" d="M354,14q15.83,27.53,31.65,55.05c11.51,19.94,23.1,39.84,34.59,59.79,14.46,25.1,28.95,50.2,43.17,75.44,1.16,2.07.63,5.25.45,7.89-.13,1.72-1.05,3.39-1.61,5.09a3.25,3.25,0,0,1-.12.82,19,19,0,0,0-3.21,3.25c-3,4.93-6,9.91-8.72,15-2.23,4.15-4.1,8.5-6.14,12.76a9,9,0,0,0-.1.91c-1.16,1-2.66,1.82-3.42,3.08-6.24,10.26-12.33,20.61-18.47,30.93-3.79-.33-7.58-.94-11.37-1q-31.49-.14-63,0c-3.32,0-5.54-.8-7.26-3.93-4.38-8-9.19-15.78-13.73-23.7-16-28-31.93-56-48-83.87s-32.49-56-48.6-84.09a6.48,6.48,0,0,1,0-5.43c8.83-15.6,18-31,26.87-46.59,3.84-6.72,7.34-13.62,11-20.44q39.86,0,79.71-.06A41.59,41.59,0,0,0,354,14Z" transform="translate(8.82 45.82)"/><path class="cls-2" d="M422.07,284c6.14-10.32,12.23-20.67,18.47-30.93.76-1.26,2.26-2.06,3.42-3.08.21.55.75,1.29.56,1.61q-12.78,22.27-25.72,44.47c-.3.51-1.05.74-1.58,1.1l-.3-.24c0-.65,0-1.3,0-2q1.1-3,2.17-5.94l1.87-3Z" transform="translate(8.82 45.82)"/><path class="cls-2" d="M444.06,249.09c2-4.26,3.91-8.61,6.14-12.76,2.74-5.09,5.7-10.07,8.72-15a19,19,0,0,1,3.21-3.25c-3.4,6.5-6.63,13.09-10.26,19.46C449.57,241.56,446.68,245.25,444.06,249.09Z" transform="translate(8.82 45.82)"/><path class="cls-9" d="M411,305l3-5,.76,1.95-1.85,3Z" transform="translate(8.82 45.82)"/><path class="cls-9" d="M400,324l3-5c.25.65.51,1.3.77,1.95-.62,1-1.24,2-1.85,3Z" transform="translate(8.82 45.82)"/><path class="cls-2" d="M406,314l3.9-4.06-3.64,6.26-.3-.24C405.94,315.29,406,314.63,406,314Z" transform="translate(8.82 45.82)"/><path class="cls-2" d="M395,333l3.9-4.06-3.64,6.27-.29-.25Z" transform="translate(8.82 45.82)"/><path class="cls-2" d="M414.74,301.94,414,300l1-2,1.92-1.05.3.24Z" transform="translate(8.82 45.82)"/><path class="cls-2" d="M392.75,339.94c-.26-.65-.52-1.3-.77-1.95l1-2,1.93-1.05.29.25Z" transform="translate(8.82 45.82)"/><path class="cls-2" d="M403.75,320.94c-.26-.65-.52-1.3-.77-1.95l1-2,1.92-1.05.3.24Z" transform="translate(8.82 45.82)"/><path class="cls-2" d="M411,305l1.9,0-2.83,4.13Z" transform="translate(8.82 45.82)"/><path class="cls-2" d="M400,324l1.91,0q-1.42,2.06-2.84,4.12Z" transform="translate(8.82 45.82)"/><path class="cls-8" d="M422.07,284,421,286c-23.93,0-47.86-.18-71.78.13-5.77.07-8.8-2.34-11.28-7-1.55-2.93-3.93-5.42-5.94-8.11h0a26.36,26.36,0,0,0-1.63-5.12c-3.38-6.07-6.84-12.1-10.48-18-2.09-3.42-4.58-6.59-6.89-9.86h0c-2.34-4.84-4.44-9.83-7.11-14.5-2.29-4-5.24-7.68-7.89-11.5h0a25.69,25.69,0,0,0-1.63-5.12c-3.38-6.07-6.84-12.1-10.48-18-2.09-3.42-4.58-6.59-6.89-9.86h0c-2.34-4.84-4.44-9.83-7.11-14.5-2.29-4-5.24-7.68-7.89-11.5h0a26.36,26.36,0,0,0-1.63-5.12c-3.38-6.07-6.84-12.1-10.48-18-2.09-3.42-4.58-6.59-6.89-9.86h0c-.67-2-1.06-4.19-2.08-6-4.55-8.08-9.25-16.07-14-24-2-3.4-2.54-6.37-.08-10.1C231.47,75.92,233,71.31,235,67h0l11-19h0l11-19h0l9-14h2c-3.66,6.82-7.16,13.72-11,20.44C248.09,51,239,66.44,230.13,82a6.48,6.48,0,0,0,0,5.43c16.11,28.09,32.44,56,48.6,84.09s32,55.92,48,83.87c4.54,7.92,9.35,15.69,13.73,23.7,1.72,3.13,3.94,3.95,7.26,3.93q31.49-.17,63,0C414.49,283.07,418.28,283.68,422.07,284Z" transform="translate(8.82 45.82)"/><path class="cls-9" d="M150,149c-2-2.69-4.39-5.18-5.94-8.11-2.48-4.68-5.51-7.09-11.28-7-24.25.31-48.51.14-72.77.14l2-2c23.48,0,47,.18,70.46-.1,6.34-.08,10.53,1.9,12.94,7.81C146.7,142.89,148.45,145.91,150,149Z" transform="translate(8.82 45.82)"/><path class="cls-9" d="M266,15l-9,14q3-7,6-14Z" transform="translate(8.82 45.82)"/><path class="cls-9" d="M332,271c2,2.69,4.39,5.18,5.94,8.11,2.48,4.68,5.51,7.09,11.28,7,23.92-.31,47.85-.13,71.78-.13l-1.87,3a40.45,40.45,0,0,0-6.3-1c-22-.07-44,.07-65.94-.19-2.6,0-6.11-1.43-7.57-3.4C336.3,280.4,334.37,275.53,332,271Z" transform="translate(8.82 45.82)"/><path class="cls-9" d="M235,67c-2,4.31-3.53,8.92-6.12,12.84-2.46,3.73-1.93,6.7.08,10.1,4.71,8,9.41,16,14,24,1,1.82,1.41,4,2.08,6-4.1-6.55-8.27-13.07-12.29-19.68a121.26,121.26,0,0,1-6.5-11.74c-.83-1.79-1.5-4.53-.71-6C228.31,77.18,231.78,72.15,235,67Z" transform="translate(8.82 45.82)"/><path class="cls-9" d="M247,353c2-4.31,3.53-8.92,6.12-12.84,2.46-3.73,1.93-6.7-.08-10.1-4.71-8-9.41-16-14-24.05-1-1.82-1.41-4-2.08-6,4.1,6.55,8.27,13.07,12.29,19.68a121.26,121.26,0,0,1,6.5,11.74c.83,1.79,1.5,4.53.71,6C253.69,342.82,250.22,347.85,247,353Z" transform="translate(8.82 45.82)"/><path class="cls-9" d="M222,274c-2.31-3.27-4.8-6.44-6.89-9.86-3.64-5.92-7.1-11.95-10.48-18A25.69,25.69,0,0,1,203,241c4.27,6.86,8.66,13.65,12.75,20.61C218.09,265.59,219.94,269.86,222,274Z" transform="translate(8.82 45.82)"/><path class="cls-9" d="M245,120c2.31,3.27,4.8,6.44,6.89,9.86,3.64,5.92,7.1,11.95,10.48,18A26.36,26.36,0,0,1,264,153c-4.27-6.86-8.66-13.65-12.75-20.61C248.91,128.41,247.06,124.14,245,120Z" transform="translate(8.82 45.82)"/><path class="cls-9" d="M169,182c-2.31-3.27-4.8-6.44-6.89-9.86-3.64-5.92-7.1-11.95-10.48-18A26.36,26.36,0,0,1,150,149c4.27,6.86,8.66,13.65,12.75,20.61C165.09,173.59,166.94,177.86,169,182Z" transform="translate(8.82 45.82)"/><path class="cls-9" d="M279,179c2.31,3.27,4.8,6.44,6.89,9.86,3.64,5.92,7.1,11.95,10.48,18A25.69,25.69,0,0,1,298,212c-4.27-6.86-8.66-13.65-12.75-20.61C282.91,187.41,281.06,183.14,279,179Z" transform="translate(8.82 45.82)"/><path class="cls-9" d="M203,241c-2.31-3.27-4.8-6.44-6.89-9.86-3.64-5.92-7.1-11.95-10.48-18A26.36,26.36,0,0,1,184,208c4.27,6.86,8.66,13.65,12.75,20.61C199.09,232.59,200.94,236.86,203,241Z" transform="translate(8.82 45.82)"/><path class="cls-9" d="M313,238c2.31,3.27,4.8,6.44,6.89,9.86,3.64,5.92,7.1,11.95,10.48,18A26.36,26.36,0,0,1,332,271c-4.27-6.86-8.66-13.65-12.75-20.61C316.91,246.41,315.06,242.14,313,238Z" transform="translate(8.82 45.82)"/><path class="cls-9" d="M264,153c2.65,3.82,5.6,7.48,7.89,11.5,2.67,4.67,4.77,9.66,7.11,14.5Z" transform="translate(8.82 45.82)"/><path class="cls-9" d="M298,212c2.65,3.82,5.6,7.48,7.89,11.5,2.67,4.67,4.77,9.66,7.11,14.5-2.36-3.53-4.94-6.95-7-10.64C303.12,222.35,300.64,217.13,298,212Z" transform="translate(8.82 45.82)"/><path class="cls-9" d="M184,208c-2.65-3.82-5.6-7.48-7.89-11.5-2.67-4.67-4.77-9.66-7.11-14.5,2.36,3.54,4.94,6.95,7,10.64C178.88,197.65,181.36,202.87,184,208Z" transform="translate(8.82 45.82)"/><path class="cls-9" d="M237,300c-2.65-3.82-5.6-7.48-7.89-11.5-2.67-4.67-4.77-9.66-7.11-14.5,2.36,3.53,4.94,6.95,7,10.64C231.88,289.65,234.36,294.87,237,300Z" transform="translate(8.82 45.82)"/><path class="cls-9" d="M246,48,235,67Z" transform="translate(8.82 45.82)"/><path class="cls-9" d="M236,372l11-19Z" transform="translate(8.82 45.82)"/><path class="cls-9" d="M225,391l11-19Z" transform="translate(8.82 45.82)"/><path class="cls-9" d="M257,29,246,48Z" transform="translate(8.82 45.82)"/><path class="cls-9" d="M416.92,296.94,415,298c.65-1,1.31-2,2-3C417,295.64,416.94,296.29,416.92,296.94Z" transform="translate(8.82 45.82)"/><path class="cls-9" d="M405.92,315.94,404,317c.65-1,1.31-2,2-3C406,314.63,405.94,315.29,405.92,315.94Z" transform="translate(8.82 45.82)"/><path class="cls-9" d="M394.93,334.94,393,336c.65-1,1.31-2,2-3Z" transform="translate(8.82 45.82)"/></svg>