<svg id="Layer_1" data-name="Layer 1" xmlns="http://www.w3.org/2000/svg" viewBox="0 0 500 500"><defs><style>.cls-1{fill:#fefefe;}.cls-2{fill:#3d7745;}.cls-3{fill:#5ecc6c;}.cls-4{fill:#99d7a1;}.cls-5{fill:#428e4c;}.cls-6{fill:#6fca7a;}.cls-7{fill:#7ad987;}.cls-8{fill:#9ddfa6;}.cls-9{fill:#62c46f;}.cls-10{fill:#6deb7d;}.cls-11{fill:#72fd84;}.cls-12{fill:#71f983;}.cls-13{fill:#6ff280;}.cls-14{fill:#7ceb8a;}.cls-15{fill:#75e082;}.cls-16{fill:#73fe85;}.cls-17{fill:#6ff27f;}.cls-18{fill:#73fe84;}.cls-19{fill:#6ef07e;}.cls-20{fill:#6eef7e;}</style></defs><title>FINALFINALPentagon</title><circle class="cls-1" cx="250" cy="250" r="353.55"/><path class="cls-2" d="M481,199c-.15,4.45-1.78,8.61-3.3,12.63-2.83,7.52-4.11,15.55-7.65,22.82-.83,6.53-4,12.37-5.58,18.67-1.82,7.22-4.5,14.15-6.53,21.3-2.79,9.81-6,19.49-9.09,29.21-.88,2.8-2,5.52-2.79,8.33a7.9,7.9,0,0,1-1,2.61c-.93,1.37-2.07,3.14-1.92,4.62.41,3.72-1.13,7-2.29,10.12-2.58,7-4.26,14.19-6.78,21.17-2.4,6.68-4.29,13.55-6.38,20.35-2.05,6.63-3.87,13.34-6.68,19.72,0,5.32-3.05,9.77-4.14,14.81a105.44,105.44,0,0,1-3,10.23c-1.06,3.24-2.09,6.48-3.05,9.75-1.5,5.16-3.51,10.2-5,15.38-1,3.27-1.86,6.57-2.9,9.8s-2.37,6.35-3,9.78c-.54,3-2.11,5.76-3.21,8.61-7.94-.1-15.7,1.52-23.62,1.17s-16-.08-24-.08c-17.66,0-35.37-.8-53,.24-15.89.93-31.73.48-47.58.71s-31.66.05-47.48.05c-9.64,2-19.38.76-29.08,1s-19.65,0-29.48,0H113c.61-3.36,3.33-3.26,5.77-3.34,5.65-.19,11.32.14,17-.11,35.73-1.58,71.51,0,107.22-1.25,31.77-1.08,63.53.34,95.25-1,15.63-.66,31.24-.35,46.85-.73a10.12,10.12,0,0,0,3.91-.52c1.15-.77,1.75-2,2.64-3a7,7,0,0,1,1.85-1.32c1.77-1,2.07-2.9,2.65-4.59,2.4-7,4.39-14.19,6.57-21.29a12.73,12.73,0,0,1,.54-2.21c5.47-16.11,10.41-32.38,15.41-48.64a12.63,12.63,0,0,1,.55-2.26c5.5-16.1,10.38-32.39,15.44-48.62a12.82,12.82,0,0,1,.53-2.22c1.58-4.7,3.44-9.31,4.5-14.17a35,35,0,0,1,1.63-6.37c1.83-2.67,3.19-5.5,2.93-8.87a21.2,21.2,0,0,1,2.23-7.53,17.25,17.25,0,0,0,3.18-8.51,26,26,0,0,1,2.56-10.05c1.94-2.63,3.26-5.47,3-8.85.23-2.61,1.42-4.93,2.17-7.38a12.88,12.88,0,0,0,2.82-8.75c.26-3.63,2.22-6.73,3.14-10.16,1.84-2.62,3.12-5.43,2.87-8.75a21.2,21.2,0,0,1,2.15-7.38,12.66,12.66,0,0,0,2.86-8.72,35.75,35.75,0,0,1,2.32-7.63c1.38-1.73,1.8-3.92,2.78-5.83S478,197.68,481,199Z" transform="translate(-1 -1)"/><path class="cls-3" d="M447,294c.19,2.26-.94,4.16-1.66,6.18A11.94,11.94,0,0,0,445,302c-.57,2.83-1.15,5.65-3,8-.33,2.33-.67,4.67-1,7-2.72,4.29-3.82,9.16-5,14v2c-2.82,4.4-3.76,9.5-5.28,14.38-3.58,11.54-7.64,22.93-10.72,34.62v2c-2.82,4.4-3.76,9.5-5.28,14.38-3.58,11.54-7.64,22.93-10.72,34.62v2c-3.26,5.22-4.14,11.3-6.11,17-1.17,3.38-1.67,7-3.89,10h-2l-.51-.61c-.74-1.88,0-3.6.59-5.33,13.14-41.69,26.08-83.45,39.35-125.11,1.81-5.69,3-11.61,5.87-16.92.27-.71.41-1.46.63-2.19a18.36,18.36,0,0,0,.81-3.67c3.05-11.93,7.09-23.55,10.9-35.24,8.18-25.14,15.93-50.41,23.8-75.63a2.82,2.82,0,0,0-1.21-3.34c-.35-.23-.69-.48-1-.74-.68-.5-1.38-1-2.1-1.4a11.11,11.11,0,0,1-1.05-.75,36.51,36.51,0,0,0-5.82-4.13,10.22,10.22,0,0,1-1.09-.77,36.33,36.33,0,0,0-6-4.25,8.6,8.6,0,0,1-1.11-.79c-2.95-2.61-6.38-4.52-9.64-6.69-44-28.41-85.62-60.33-128.62-90.21-20.22-14-40.11-28.59-60.22-42.79-1.5-1.06-3.1-2-4.59-3a2.43,2.43,0,0,1-.58-2.05A3.25,3.25,0,0,1,253,34c.76.15,1.91-.5,2,1,.35.32.65.69,1,1,.77,1,2.07,1.23,3,2l3,2c.35.32.65.69,1,1,.77,1,2.05,1.25,3,2,.77,1,2.05,1.25,3,2,.32.34.66.68,1,1,.77,1,2.05,1.25,3,2,.77,1,2.07,1.23,3,2l1,1c.78,1,2.05,1.26,3,2,.77,1,2.07,1.23,3,2l1,1c.78,1,2.05,1.26,3,2,.77,1,2.07,1.23,3,2l1,1c.78,1,2.05,1.26,3,2,.77,1,2.07,1.23,3,2l3,2c.35.32.65.69,1,1,.77,1,2.07,1.23,3,2l3,2c.35.32.65.69,1,1,.77,1,2.05,1.25,3,2,.77,1,2.05,1.25,3,2,.32.34.66.68,1,1,.77,1,2.05,1.25,3,2,.77,1,2.07,1.23,3,2l1,1c.78,1,2.05,1.26,3,2,.77,1,2.05,1.25,3,2,.32.34.66.68,1,1,.77,1,2.05,1.25,3,2,.77,1,2.07,1.23,3,2l1,1c.78,1,2.05,1.26,3,2,.77,1,2.07,1.23,3,2l3,2c.35.32.65.69,1,1,.77,1,2.07,1.23,3,2l3,2c.35.32.65.69,1,1,.77,1,2.05,1.25,3,2,.77,1,2.05,1.25,3,2,.32.34.66.68,1,1,.77,1,2.05,1.25,3,2,.77,1,2.07,1.23,3,2l1,1c.78,1,2.05,1.26,3,2,.77,1,2.05,1.25,3,2,.32.34.66.68,1,1,.77,1,2.05,1.25,3,2,.77,1,2.07,1.23,3,2l1,1c.78,1,2.05,1.26,3,2,.77,1,2.07,1.23,3,2,1.3,1.05,3.49.9,4,3,.77,1,2.06,1.24,3,2l3,2c.35.32.65.69,1,1,.77,1,2.05,1.25,3,2,.77,1,2.05,1.25,3,2,.32.34.66.68,1,1,.77,1,2.05,1.25,3,2,.77,1,2.07,1.23,3,2l1,1c.78,1,2.05,1.26,3,2,.77,1,2.05,1.25,3,2,.32.34.66.68,1,1,.77,1,2.05,1.25,3,2,.77,1,2.07,1.23,3,2l1,1c.78,1,2.05,1.26,3,2,.77,1,2.07,1.23,3,2l3,2c.35.32.65.69,1,1,.77,1,2.07,1.23,3,2l1,1c.77,1,2.06,1.24,3,2,.5,0,1.21-.21,1.45,0,3.11,3.23,7,5.39,10.65,7.89,3.45,2.39,6.88,4.86,10.29,7.27,4,2.8,8,5.53,11.84,8.59A12.16,12.16,0,0,1,479,195c-.27,4.87-3.26,8.69-5,13a8.65,8.65,0,0,1-1.3,5.85A7.86,7.86,0,0,0,472,216c-.57,2.83-1.15,5.65-3,8,.19,2.26-.94,4.16-1.66,6.18A11.94,11.94,0,0,0,467,232c-.57,2.83-1.15,5.65-3,8,.5,3.46-1.84,6.1-2.67,9.18-.16.59-.22,1.21-.33,1.82-.57,2.83-1.15,5.65-3,8a8.65,8.65,0,0,1-1.3,5.85A7.86,7.86,0,0,0,456,267c-.57,2.83-1.15,5.65-3,8a16.23,16.23,0,0,1-.35,2.81c-.45,1.45-1.28,2.8-1.59,4.26A18.38,18.38,0,0,0,451,286C448.68,288.17,449.23,291.78,447,294Z" transform="translate(-1 -1)"/><path class="cls-4" d="M58,173c8-6.45,16.54-12.3,24.85-18.4,8.46-6.22,16.72-12.71,25.1-19,8-6,15.78-12.35,24.07-17.93,8.54-5.74,16.49-12.27,24.9-18.18,8.59-6,16.75-12.66,25.13-19,6.59-5,13.18-10,19.85-14.83,6.88-5,13.93-9.83,20.8-14.87,4.63-3.4,9.06-7.07,13.62-10.57,2.77-2.11,5.61-4.14,8.43-6.19,1.4-1,2.83-2,4.25-3a5.71,5.71,0,0,1,1,4.38,7.13,7.13,0,0,1-1.3,3.4,4.28,4.28,0,0,1-1,.88,7.64,7.64,0,0,0-3.45,2.62,5.56,5.56,0,0,1-1.07.65,7.32,7.32,0,0,0-2.85,2.29,5.5,5.5,0,0,1-1.05.67,6.59,6.59,0,0,0-2.81,2.2,5.05,5.05,0,0,1-1,.68,9.62,9.62,0,0,0-2.37,1.68,19.75,19.75,0,0,1-2,1.27,10,10,0,0,0-2.69,2.45,5.1,5.1,0,0,1-1.05.68,10.91,10.91,0,0,0-3.64,2.39,8.76,8.76,0,0,1-1.07.77,18,18,0,0,0-5.18,4.12,5.39,5.39,0,0,1-1.1.73,7.48,7.48,0,0,0-3,2.33,5.16,5.16,0,0,1-1.06.68,6.67,6.67,0,0,0-2.83,2.21,5.54,5.54,0,0,1-1,.71,5.25,5.25,0,0,0-2.06,2,4.3,4.3,0,0,1-2.08,1.28,5.62,5.62,0,0,0-3,2.11,6.35,6.35,0,0,1-1,.73,11,11,0,0,0-2.06,1.46,18.49,18.49,0,0,1-2.16,1.34,10.4,10.4,0,0,0-2.78,2.51,5.35,5.35,0,0,1-1.08.69,10.42,10.42,0,0,0-3.2,2,12.23,12.23,0,0,1-1,.8c-.66.53-1.27,1.11-1.91,1.64a7.84,7.84,0,0,1-1.09.62,7.06,7.06,0,0,0-2.81,2.27,5.35,5.35,0,0,1-1.06.66,7.25,7.25,0,0,0-2.89,2.31,5.77,5.77,0,0,1-1.08.68,7.32,7.32,0,0,0-2.92,2.31,6.3,6.3,0,0,1-1.07.69,7.28,7.28,0,0,0-2.93,2.31,5.75,5.75,0,0,1-1.07.69,7.28,7.28,0,0,0-2.93,2.31,5.7,5.7,0,0,1-1.07.68,7.41,7.41,0,0,0-2.92,2.31,5.23,5.23,0,0,1-1.07.68,7.19,7.19,0,0,0-2.92,2.32,5.82,5.82,0,0,1-1.08.69,10.42,10.42,0,0,0-3.2,2,12.23,12.23,0,0,1-1,.8c-.66.52-1.27,1.1-1.91,1.64a7.14,7.14,0,0,1-1.08.61,6.93,6.93,0,0,0-2.8,2.26,5.61,5.61,0,0,1-1.09.67,7.81,7.81,0,0,0-3,2.43,6.36,6.36,0,0,1-1.17.7,15.12,15.12,0,0,0-6.46,5,4.47,4.47,0,0,1-1,.74,7.3,7.3,0,0,0-3.32,2.56,6.27,6.27,0,0,1-1,.64,7.21,7.21,0,0,0-2.85,2.28,5.32,5.32,0,0,1-1.06.68,7.15,7.15,0,0,0-2.91,2.31,5.87,5.87,0,0,1-1.08.7,10.21,10.21,0,0,0-3.2,2,12.23,12.23,0,0,1-1,.8c-.66.53-1.27,1.11-1.92,1.64a7.2,7.2,0,0,1-1.08.62,7.06,7.06,0,0,0-2.81,2.27,5.35,5.35,0,0,1-1.06.66,7.25,7.25,0,0,0-2.89,2.31,5.7,5.7,0,0,1-1.07.68,7.2,7.2,0,0,0-2.91,2.3,5.12,5.12,0,0,1-1.06.67,6.72,6.72,0,0,0-2.82,2.21,4.65,4.65,0,0,1-1,.68,9.45,9.45,0,0,0-2.38,1.69,20.42,20.42,0,0,1-2,1.27,10.17,10.17,0,0,0-2.68,2.43,4.63,4.63,0,0,1-1,.66c-1.42.43-2.28,1.57-3.25,2.59A6.57,6.57,0,0,1,87,159a14,14,0,0,0-5.58,4.1,5.49,5.49,0,0,1-1.08.72,7.33,7.33,0,0,0-3,2.34,5.7,5.7,0,0,1-1.07.68,6.75,6.75,0,0,0-2.84,2.23,5.26,5.26,0,0,1-1,.72A6.47,6.47,0,0,0,70.32,172,5.66,5.66,0,0,1,68,173.31c-2.53,1-4.54,3.34-7.63,2.82C58.77,175.68,56.82,175.5,58,173Z" transform="translate(-1 -1)"/><path class="cls-3" d="M392,462c-.38,1,.93,2.53-1,3-1.58,1.29-3.47,1-5.28,1-18.14.06-36.29-.22-54.42.53-26,1.07-52-.3-77.92.61-32.46,1.14-64.91.5-97.37,1-12.46.18-24.93,1.12-37.4.84-2.88-.06-5.74,2.57-8.61.08-1.5-.09-.85-1.24-1-2a7.85,7.85,0,0,1,3.58-2.07c.86-.28,1.76-.38,2.61-.7a23,23,0,0,1,7.42-.83c47.61.7,95.21-1,142.82-1.22,38.78-.21,77.56-.87,116.35-.76C385.17,461.43,388.72,459.75,392,462Z" transform="translate(-1 -1)"/><path class="cls-5" d="M110,469c4.24.26,8.27-1.47,12.58-1.08,4.12.38,8.44.74,12.45-.06,8.37-1.65,16.73-.72,25.08-.79,22.64-.2,45.28-.07,67.92-.07,10.47-1.81,21-.82,31.54-1,10.82-.15,21.64,0,32.46,0,10.66,0,21.39.79,32-.22,11.22-1.07,22.38-.51,33.56-.73S379.85,465,391,465v1.83c-.75.05-1.52.16-2.29.16-14,0-28-.8-41.92.22-15.87,1.17-31.69.49-47.53.74s-31.95.05-47.92.05c-10.46,1.93-21,.77-31.54,1s-21,0-31.45,0c-10.65,0-21.38-.83-31.93.21-13.7,1.34-27.36.09-41.08,1L113,472h-3Z" transform="translate(-1 -1)"/><path class="cls-6" d="M112,466c-.47,1.93-2,.62-3,1-1.67-4.8-3.37-9.59-5-14.4-3.88-11.54-7.7-23.1-11.56-34.65C89.31,408.6,86,399.3,83,389.9c-2.32-7.34-4.92-14.59-7.46-21.86-3.31-9.46-6.39-19-9.58-28.48-2.21-6.57-4.45-13.13-6.63-19.72A15.54,15.54,0,0,1,59,317c1.14-.79,2-.31,2.81.59a38.16,38.16,0,0,1,4.6,9.9c6.38,19.58,13.2,39,19.68,58.57q11.67,35.24,23.59,70.4C110.73,459.54,112.33,462.56,112,466Z" transform="translate(-1 -1)"/><path class="cls-7" d="M61,318c-.09-1.5-1.24-.85-2-1-2.09-1.84-2-4.66-2.88-7-2.67-6.87-4.87-13.94-7.1-21s-4.74-13.67-6.86-20.56c-3.22-10.45-6.61-20.85-10.29-31.13-3.26-9.12-6.1-18.38-9.44-27.47-.81-2.19-1.84-4.4-1.43-6.88a2.48,2.48,0,0,1,3-.34c2.35,3.55,2.62,7.82,3.94,11.73,8.3,24.57,16.51,49.17,24.9,73.71,3.17,9.27,6.1,18.63,9.7,27.76C62.56,316.94,62.66,318.13,61,318Z" transform="translate(-1 -1)"/><path class="cls-8" d="M24,203H21l-1.42-.79c3.5-4.57,8.41-7,12.62-10.2s8.56-6.4,12.87-9.57S53.69,176.14,58,173v2h3c.44,3.09-2.44,4-3.85,5.9a9.77,9.77,0,0,1-1,.79,10.42,10.42,0,0,0-2.7,2.43,4.85,4.85,0,0,1-.95.68,5.06,5.06,0,0,0-2,2,4.08,4.08,0,0,1-2,1.25,8,8,0,0,0-3.66,2.17,11.6,11.6,0,0,1-1.07.77,17.67,17.67,0,0,0-5.25,4.16,5.57,5.57,0,0,1-1.12.74,7.69,7.69,0,0,0-3.05,2.4,5.75,5.75,0,0,1-1.13.7c-1.85.57-2.8,2.11-3.84,3.56a4.27,4.27,0,0,1-1.79,1.23A3.45,3.45,0,0,1,24,203Z" transform="translate(-1 -1)"/><path class="cls-5" d="M474,208c1.35-4,1.69-8.4,5-11.57.24-.24,0-.94,0-1.43l3.21,1.64L481,199a2.54,2.54,0,0,0-3,1.79c-.91,2.38-1.7,4.81-2.54,7.21Z" transform="translate(-1 -1)"/><path class="cls-9" d="M249,36V31l4,3-2,2A1.34,1.34,0,0,1,249,36Z" transform="translate(-1 -1)"/><path class="cls-9" d="M443,169h-3v-2A2.46,2.46,0,0,1,443,169Z" transform="translate(-1 -1)"/><path class="cls-9" d="M283,55h-3V53A2.46,2.46,0,0,1,283,55Z" transform="translate(-1 -1)"/><path class="cls-9" d="M280,53h-3V51A2.46,2.46,0,0,1,280,53Z" transform="translate(-1 -1)"/><path class="cls-9" d="M404,141h-3v-2A2.46,2.46,0,0,1,404,141Z" transform="translate(-1 -1)"/><path class="cls-9" d="M401,139h-3v-2A2.46,2.46,0,0,1,401,139Z" transform="translate(-1 -1)"/><path class="cls-9" d="M276,50h-3V48A2.46,2.46,0,0,1,276,50Z" transform="translate(-1 -1)"/><path class="cls-9" d="M411,146h-3v-2A2.46,2.46,0,0,1,411,146Z" transform="translate(-1 -1)"/><path class="cls-9" d="M273,48h-3V46A2.46,2.46,0,0,1,273,48Z" transform="translate(-1 -1)"/><path class="cls-9" d="M394,134h-3v-2A2.46,2.46,0,0,1,394,134Z" transform="translate(-1 -1)"/><path class="cls-9" d="M387,129h-3v-2A2.46,2.46,0,0,1,387,129Z" transform="translate(-1 -1)"/><path class="cls-9" d="M384,127h-3v-2A2.46,2.46,0,0,1,384,127Z" transform="translate(-1 -1)"/><path class="cls-9" d="M415,149h-3v-2A2.46,2.46,0,0,1,415,149Z" transform="translate(-1 -1)"/><path class="cls-9" d="M380,124h-3v-2A2.46,2.46,0,0,1,380,124Z" transform="translate(-1 -1)"/><path class="cls-9" d="M377,122h-3v-2A2.46,2.46,0,0,1,377,122Z" transform="translate(-1 -1)"/><path class="cls-9" d="M269,45h-3V43A2.46,2.46,0,0,1,269,45Z" transform="translate(-1 -1)"/><path class="cls-9" d="M373,119h-3v-2A2.46,2.46,0,0,1,373,119Z" transform="translate(-1 -1)"/><path class="cls-9" d="M259,38h-3V36A2.46,2.46,0,0,1,259,38Z" transform="translate(-1 -1)"/><path class="cls-9" d="M370,117h-3v-2A2.46,2.46,0,0,1,370,117Z" transform="translate(-1 -1)"/><path class="cls-9" d="M366,114h-3v-2A2.46,2.46,0,0,1,366,114Z" transform="translate(-1 -1)"/><path class="cls-9" d="M363,112h-3v-2A2.46,2.46,0,0,1,363,112Z" transform="translate(-1 -1)"/><path class="cls-9" d="M422,154h-3v-2A2.46,2.46,0,0,1,422,154Z" transform="translate(-1 -1)"/><path class="cls-9" d="M425,156h-3v-2A2.46,2.46,0,0,1,425,156Z" transform="translate(-1 -1)"/><path class="cls-9" d="M408,144h-3v-2A2.46,2.46,0,0,1,408,144Z" transform="translate(-1 -1)"/><path class="cls-9" d="M432,161h-3v-2A2.46,2.46,0,0,1,432,161Z" transform="translate(-1 -1)"/><path class="cls-9" d="M359,109h-3v-2A2.46,2.46,0,0,1,359,109Z" transform="translate(-1 -1)"/><path class="cls-9" d="M356,107h-3v-2A2.46,2.46,0,0,1,356,107Z" transform="translate(-1 -1)"/><path class="cls-9" d="M418,151h-3v-2A2.46,2.46,0,0,1,418,151Z" transform="translate(-1 -1)"/><path class="cls-9" d="M349,102h-3v-2A2.46,2.46,0,0,1,349,102Z" transform="translate(-1 -1)"/><path class="cls-9" d="M429,159h-3v-2A2.46,2.46,0,0,1,429,159Z" transform="translate(-1 -1)"/><path class="cls-9" d="M342,97h-3V95A2.46,2.46,0,0,1,342,97Z" transform="translate(-1 -1)"/><path class="cls-9" d="M339,95h-3V93A2.46,2.46,0,0,1,339,95Z" transform="translate(-1 -1)"/><path class="cls-9" d="M335,92h-3V90A2.46,2.46,0,0,1,335,92Z" transform="translate(-1 -1)"/><path class="cls-9" d="M332,90h-3V88A2.46,2.46,0,0,1,332,90Z" transform="translate(-1 -1)"/><path class="cls-9" d="M439,166h-3v-2A2.46,2.46,0,0,1,439,166Z" transform="translate(-1 -1)"/><path class="cls-9" d="M328,87h-3V85A2.46,2.46,0,0,1,328,87Z" transform="translate(-1 -1)"/><path class="cls-9" d="M325,85h-3V83A2.46,2.46,0,0,1,325,85Z" transform="translate(-1 -1)"/><path class="cls-9" d="M266,43h-3V41A2.46,2.46,0,0,1,266,43Z" transform="translate(-1 -1)"/><path class="cls-9" d="M321,82h-3V80A2.46,2.46,0,0,1,321,82Z" transform="translate(-1 -1)"/><path class="cls-9" d="M318,80h-3V78A2.46,2.46,0,0,1,318,80Z" transform="translate(-1 -1)"/><path class="cls-9" d="M314,77h-3V75A2.46,2.46,0,0,1,314,77Z" transform="translate(-1 -1)"/><path class="cls-9" d="M311,75h-3V73A2.46,2.46,0,0,1,311,75Z" transform="translate(-1 -1)"/><path class="cls-9" d="M304,70h-3V68A2.46,2.46,0,0,1,304,70Z" transform="translate(-1 -1)"/><path class="cls-9" d="M287,58h-3V56A2.46,2.46,0,0,1,287,58Z" transform="translate(-1 -1)"/><path class="cls-9" d="M297,65h-3V63A2.46,2.46,0,0,1,297,65Z" transform="translate(-1 -1)"/><path class="cls-9" d="M294,63h-3V61A2.46,2.46,0,0,1,294,63Z" transform="translate(-1 -1)"/><path class="cls-9" d="M290,60h-3V58A2.46,2.46,0,0,1,290,60Z" transform="translate(-1 -1)"/><path class="cls-9" d="M405,142l-1-1Z" transform="translate(-1 -1)"/><path class="cls-9" d="M398,137l-1-1Z" transform="translate(-1 -1)"/><path class="cls-9" d="M374,120l-1-1Z" transform="translate(-1 -1)"/><path class="cls-9" d="M360,110l-1-1Z" transform="translate(-1 -1)"/><path class="cls-9" d="M353,105l-1-1Z" transform="translate(-1 -1)"/><path class="cls-9" d="M329,88l-1-1Z" transform="translate(-1 -1)"/><path class="cls-9" d="M301,68l-1-1Z" transform="translate(-1 -1)"/><path class="cls-9" d="M270,46l-1-1Z" transform="translate(-1 -1)"/><path class="cls-9" d="M263,41l-1-1Z" transform="translate(-1 -1)"/><path class="cls-9" d="M315,78l-1-1Z" transform="translate(-1 -1)"/><path class="cls-9" d="M256,36l-1-1Z" transform="translate(-1 -1)"/><path class="cls-9" d="M308,73l-1-1Z" transform="translate(-1 -1)"/><path class="cls-9" d="M346,100l-1-1Z" transform="translate(-1 -1)"/><path class="cls-9" d="M436,164l-1-1Z" transform="translate(-1 -1)"/><path class="cls-9" d="M419,152l-1-1Z" transform="translate(-1 -1)"/><path class="cls-5" d="M420,382c-.33-.43-1.05-1-.95-1.26,3.83-9.4,6.21-19.28,9.4-28.88,2.08-6.26,4.22-12.52,5.9-18.86H436a96.4,96.4,0,0,0-2.95,9.25c-1.53,7.14-4.31,13.9-6.29,20.91a105.46,105.46,0,0,1-5.34,15.72C421,379.88,422.09,381.78,420,382Z" transform="translate(-1 -1)"/><path class="cls-5" d="M404,433c-.33-.43-1.05-1-.95-1.26,3.83-9.4,6.21-19.28,9.4-28.88,2.08-6.26,4.22-12.52,5.9-18.86H420a96.4,96.4,0,0,0-2.95,9.25c-1.53,7.14-4.31,13.9-6.29,20.91a105.46,105.46,0,0,1-5.34,15.72C405,430.88,406.09,432.78,404,433Z" transform="translate(-1 -1)"/><path class="cls-5" d="M394,462c.91-2.74,2.14-5.43,2.66-8.24,1.22-6.51,4.22-12.41,5.64-18.76H404c-1,3.36-2,6.74-3,10.08-1.78,5.66-3.61,11.3-5.41,16.92Z" transform="translate(-1 -1)"/><path class="cls-5" d="M436,331c-.33-.42-1-1-.94-1.23,1.45-4.27,3-8.51,4.53-12.77H441q-2.25,7-4.52,14C436.46,331,436.17,331,436,331Z" transform="translate(-1 -1)"/><path class="cls-5" d="M458,259c.84-2.67,1.68-5.33,2.54-8,0,0,.3,0,.46,0,.33.42,1,.95.94,1.23-.75,2.28-1.65,4.51-2.51,6.77Z" transform="translate(-1 -1)"/><path class="cls-5" d="M469,224c.84-2.67,1.68-5.33,2.54-8,0,0,.3,0,.46,0,.33.42,1,.95.94,1.23-.75,2.28-1.65,4.51-2.51,6.77Z" transform="translate(-1 -1)"/><path class="cls-5" d="M453,275c.84-2.67,1.68-5.33,2.54-8,0-.05.3,0,.46,0,.33.42,1,.95.94,1.23-.75,2.28-1.65,4.51-2.51,6.77Z" transform="translate(-1 -1)"/><path class="cls-5" d="M447,294c.76-2.56,1.51-5.13,2.36-8H451c-.76,2.56-1.51,5.13-2.36,8Z" transform="translate(-1 -1)"/><path class="cls-5" d="M442,310c.84-2.67,1.68-5.33,2.54-8,0-.05.3,0,.46,0,.33.42,1,.95.94,1.23-.75,2.28-1.65,4.51-2.51,6.77Z" transform="translate(-1 -1)"/><path class="cls-5" d="M464,240c.84-2.67,1.68-5.33,2.54-8,0,0,.3,0,.46,0,.33.42,1,.95.94,1.23-.75,2.28-1.65,4.51-2.51,6.77Z" transform="translate(-1 -1)"/><path class="cls-10" d="M115,137h1c.66-.67,1.34-1.32,2-2a13.39,13.39,0,0,0,4-3h1c1-1,2-2,3-3h1c1-1,2-2,3-3h1c1-1,2-2,3-3h1c2-2.43,4.94-3.68,7-6h1c1-1,2-2,3-3h1c1-1,2-2,3-3h1c.66-.67,1.34-1.33,2-2a13.39,13.39,0,0,0,4-3h1c1-1,2-2,3-3h1c1-1,2-2,3-3h1c1-1,2-2,3-3h1c1-1,2-2,3-3h1c1-1,2-2,3-3h1c1-1,2-2,3-3h1c1-1,2-2,3-3h1c.66-.67,1.34-1.33,2-2a13.39,13.39,0,0,0,4-3h1q1.51-1.48,3-3c.09-1.5,1.24-.85,2-1,.66-.68,1.35-1.32,2-2h1c1-1,2-2,3-3,.76-.15,1.91.5,2-1,.68-.66,1.34-1.32,2-2h1c1-1,2-2,3-3h1c1-1,2-2,3-3h1c1.72-2,4.34-2.93,6-5a13.39,13.39,0,0,0,4-3h1q1.51-1.48,3-3c.09-1.5,1.24-.85,2-1,.66-.68,1.35-1.32,2-2h1c1-1,2-2,3-3h1c1-1,2-2,3-3h1c1-1,2-2,3-3h1c.86-.76,1.63-1.76,3-1h1.76c5,3.41,9.82,6.62,14.55,10,6.56,4.71,13,9.58,19.55,14.31,3.05,2.21,6.27,4.19,9.33,6.38,5,3.6,9.91,7.36,15,10.91,7,4.9,13.92,9.84,20.89,14.72,6.17,4.31,12.23,8.81,18.52,13,3.93,2.6,7.67,5.6,11.58,8.3,8.95,6.17,17.69,12.64,26.63,18.82,7.9,5.47,15.52,11.35,23.57,16.64,5.69,3.74,11,8.14,16.44,12.19,3.42,2.53,6.89,5,10.43,7.37.73.48,1.86.35,3.51.61L445,174c.2,2-1.39,1.6-2.46,1.93-2.41.76-2.36,3.11-2.91,4.89-9.47,30.87-19.46,61.57-28.88,92.46-.88,2.86-1.76,5.73-2.88,8.51-.79,2-1.38,4.21-3.95,4.74-2.09-.17-3.31-1.89-5-2.8-1.25-1-2.72-1.56-4-2.44a28.66,28.66,0,0,0-6.18-4.77,73,73,0,0,0-7-5,38.88,38.88,0,0,0-7.55-5c-.86-.61-1.6-1.37-2.44-2a33.16,33.16,0,0,0-3.91-3c-1-.71-2-1.41-3.06-2.07-1.33-1-2.52-2.11-3.95-2.94-1-.7-2-1.41-3.07-2.07a47.86,47.86,0,0,0-4-3c-1-.72-2.1-1.42-3.17-2.11a78.88,78.88,0,0,0-6.87-4.87,73.81,73.81,0,0,0-7-5,51.67,51.67,0,0,0-4.31-3.2c-10.16-7.27-20.17-14.72-30.56-21.65a71,71,0,0,0-7.16-5.16,75.82,75.82,0,0,0-7.21-5.12c-10.2-7.33-20.28-14.82-30.74-21.78-3.23-2-5.9-6-10.57-3-9.23,6.09-17.72,13.19-26.66,19.66-1.53.93-2.88,2.1-4.31,3.17s-2.82,2.17-4.25,3.24c-9.07,6.19-17.59,13.13-26.45,19.6a46.82,46.82,0,0,0-4.26,3.15,27.54,27.54,0,0,0-3.45,3c-8.3,4.85-15.46,11.29-23.27,16.81-1.5.92-2.85,2.06-4.25,3.12a49,49,0,0,0-4.11,3.09,31.18,31.18,0,0,0-3.4,3c-8.31,4.86-15.47,11.3-23.29,16.84a51.4,51.4,0,0,0-4.39,3.26c-1.61,1-3,2.38-4.52,3.49-10.11,7-10.06,7-14.06-4.87-10.37-30.66-20.33-61.47-31-92A22.77,22.77,0,0,1,63,178.45c.09-3.38,3.5-4.17,5-6.45.76-.15,1.91.5,2-1,.68-.66,1.34-1.32,2-2h1c1-1,2-2,3-3h1c1-1,2-2,3-3h1c1.72-2,4.34-2.93,6-5h1c1-1,2-2,3-3h1q1.52-1.49,3-3c.09-1.5,1.24-.85,2-1,.66-.68,1.35-1.32,2-2h1c1-1,2-2,3-3h1c1-1,2-2,3-3h1c1-1,2-2,3-3h1C113,139,114,138,115,137Z" transform="translate(-1 -1)"/><path class="cls-10" d="M392,462c-15.64,2.09-31.35.7-47,.95s-31.33-.61-46.93.28c-10.53.6-21,.59-31.56.74-10.81.15-21.64,0-32.46,0-10.65,0-21.37-.72-31.94.22C193,465,184,464.79,175,465c-9.32.18-18.64,0-28,0-9.15,0-18.31.13-27.46-.1-2.06,0-3.64,1.24-5.58,1.1-1.81-2.14-1.85-4.94-2.68-7.43C96.18,413.34,80.63,368.25,65.72,323c-.62-1.86-1.73-3.65-1.1-5.76,2.73-4,7-6.09,10.65-8.95C80.64,304,86.16,300,91.65,295.93c1.6-1.18,3.19-2.44,5.43-2.48,2.85.63,3.64,3,4.44,5.42,2.77,8.19,5.64,16.35,8.52,24.37,1.8,2,4,2.37,6.45,2.37,11.66,0,23.36.67,35-.15,23.63-1.67,47.27-.15,70.89-.88,39.27-1.21,78.57-.32,117.84-1.24,16.8-.39,33.6-.39,50.39-.66,4.13-.06,6.51-1.48,7.74-5.44,1.78-5.72,3.64-11.41,5.4-17.13,2.12-6.87,4.7-7.73,10.41-3.64,8.25,5.91,16.46,11.85,24.87,17.53-2.22,2.73-3.18,6.1-3.91,9.36-1.35,6.08-3.61,11.89-5.35,17.83-1.68,5.71-3.84,11.41-5.61,17.13-2.38,7.68-5,15.28-7.16,23-1.15,4.17-2.65,8.23-4,12.35-2.34,7.37-4.71,14.72-7,22.1-3.15,10.19-6.25,20.38-9.63,30.5-1.52,4.52-2.67,9.2-4.35,13.7A6,6,0,0,0,392,462Z" transform="translate(-1 -1)"/><path class="cls-11" d="M475,196c.29,3.12-1.41,5.78-2.23,8.59-2.27,7.69-5.49,15.11-7.54,22.84-1.71,6.47-4.38,12.61-6,19-1.76,7.1-4.67,13.81-6.27,20.93-.62,2.72-2.27,5.16-2.85,7.79-.61,2.8-2,5.27-2.61,7.93-1.2,5.16-3.42,10-4.58,15.13-.61,2.7-1.76,5.27-2.57,7.92A16.84,16.84,0,0,0,440,309a4.43,4.43,0,0,1-4.45.85,6.37,6.37,0,0,1-2-1.12c-6.32-5.59-13.61-9.9-20.27-15.05-1.43-1.12-3-2.05-4-3.63a6.38,6.38,0,0,1-.93-4.46c9.17-29.82,18.58-59.56,28-89.3,1.66-5.22,3-10.54,4.94-15.67s4.05-5.72,8.65-2.78c1.68,1.07,3.34,2.16,5.07,3.16,1.95,2.2,4.54,3.51,7,5,1.95,2.2,4.54,3.51,7,5,.77,1,2.05,1.25,3,2Q473.49,194.52,475,196Z" transform="translate(-1 -1)"/><path class="cls-12" d="M409,286c.11.61.18,1.23.34,1.82.18.74.44,1.46.66,2.18,2.23,3.66,6.06,5.41,9.37,7.78C424.2,301.25,428.84,305,434,308l1,1c1.16,1.23,3.09,1.43,4,3v2c-3.62.48-5.79-2.28-8.34-3.95-4.11-2.69-7.91-5.84-11.88-8.75-2.81-2.07-5.69-4.06-8.8-6.27h-2.51c-.39.39-.91.68-1.07,1.11a37.68,37.68,0,0,0-2.33,7c-.92,5.89-3.79,11.14-5.19,16.87-.37,1.55-2.18,2.75-3.23,4-15.23,0-30.27-.74-45.19.2-16.21,1-32.38.58-48.56.76s-32.64,0-49,0c-10.13,2-20.37.73-30.56.95s-20.31.05-30.47.05c-10.32,0-20.71-.7-31,.17-14.53,1.23-29,.48-43.56.82-1.65,0-3.31,0-4.86,0l-3.72-2.62c-1.06-3.08-1.77-5.45-2.7-7.74-3-7.52-4.37-15.7-8.7-23.28L65,318c-1.58,1-2.23.21-2.46-1.32.22-1.63-.42-3.34.37-4.93,9.85-6.75,19-14.44,28.9-21.13a14.23,14.23,0,0,0,3.68-4c1.17-2.47-.37-4.56-1.08-6.68-10.32-30.7-20.18-61.56-31-92.11a33.42,33.42,0,0,1-2.13-8.18c.31-1.5.82-2.68,2.68-1.64,1.87,5.71,3.69,11.44,5.64,17.12,3.7,10.77,8.14,21.33,11,32.31,2.37,9,6.17,17.45,8.75,26.35,2.77,9.61,6.48,18.94,9.48,28.48.61,2,1.27,2.81,3.28,2.74,1.95-1.52,3.93-3.13,6-4.62A4.92,4.92,0,0,1,110,280l.41.56c.29,2.74-2.16,3.43-3.66,4.78s-3.43,2.17-2.87,4.67a5.65,5.65,0,0,1-.84,3c-.14.31-.4.65-.34.93,2,10.1,5.61,19.64,9.29,28.41,2.89,1.54,5.1,1.25,7.23,1.2,41.58-1.08,83.18-.29,124.75-1.33,27.45-.68,54.89.22,82.31-.81,21.12-.8,42.22-.83,63.34-.8,4.12,0,6.41-1.43,7.48-5.6,1.84-7.2,5.31-14,5.82-21.52a11.15,11.15,0,0,1-1.38-3.65,5.8,5.8,0,0,1,.92-3.41L403,286h1.49c3.24-5.7,4.62-12.06,6.47-18.24,1.33-4.43,3-8.76,4.21-13.23.62-2.21,1-4.53,1.81-6.7s1.4-4.4,2.27-6.54,1.18-4.57,1.93-6.68c1.28-3.61,2.71-7.23,3.72-10.89,2.43-8.78,5.65-17.29,8.14-26,2.14-7.56,4.61-15,7-22.52a17.36,17.36,0,0,1,2-3V175c1.68,2,.14,3.84-.41,5.6-10.52,33.87-21.3,67.66-31.8,101.54A11,11,0,0,0,409,286Z" transform="translate(-1 -1)"/><path class="cls-13" d="M409,286c-1.81-.45-1.08-1.77-.76-2.69,1.45-4.22,3.61-8.29,4.4-12.62,1.22-6.62,4.26-12.62,5.63-19.21,1.05-5,3.26-9.93,4.88-14.92.72-2.22,1-4.54,1.82-6.72s1.4-4.41,2.27-6.54,1.2-4.57,1.93-6.7c1.4-4.08,2.85-8.14,4.06-12.29,1.12-3.85,2.75-7.55,3.7-11.43s2.78-7.22,3.24-11.2c.24-2.18,1.9-4.24,1.83-6.68,1-.38,2.53.93,3-1,2-.72,2.74,1.37,4,2.11,2.19,1.31,4.9,2.18,6,4.89-3.43.55-4.84-2.73-7.37-3.89H444c-1,2.58-2.18,5.1-3,7.74-2.15,7.24-4.47,14.43-6.76,21.62-1.68,5.29-3.28,10.61-5,15.89-.68,2-1.14,4.12-2,6.17s-1.1,4.48-1.95,6.67a28.94,28.94,0,0,0-2.06,6.11c-.78,5.44-3.09,10.38-4.69,15.54-2.05,6.61-3.65,13.39-6.57,19.71.36,3.29-1.84,6-2.18,9.08C409.8,285.79,409.28,285.88,409,286Z" transform="translate(-1 -1)"/><path class="cls-13" d="M462,186c-3.47-.24-6.24-2.22-7-5C457.9,181.87,460.47,183.21,462,186Z" transform="translate(-1 -1)"/><path class="cls-13" d="M469,191c-3.47-.24-6.24-2.22-7-5C464.9,186.87,467.47,188.21,469,191Z" transform="translate(-1 -1)"/><path class="cls-10" d="M439,312l-4-1.19V309h5C439.67,310,439.33,311,439,312Z" transform="translate(-1 -1)"/><path class="cls-13" d="M475,196c-2.24-.21-2.79-.76-3-3C474.24,193.21,474.79,193.76,475,196Z" transform="translate(-1 -1)"/><path class="cls-14" d="M251,38l-3,1,1-3h2Z" transform="translate(-1 -1)"/><path class="cls-13" d="M472,193h-3v-2A2.46,2.46,0,0,1,472,193Z" transform="translate(-1 -1)"/><path class="cls-14" d="M64,178H62v2a2.45,2.45,0,0,1-1.5,1.76c-1.62.45-3.18.59-4.5-.76l5-6h2.31c1.72-.87,2.25-3.4,4.69-3,.15,2.82-2.23,3.41-4,4.55Z" transform="translate(-1 -1)"/><path class="cls-14" d="M142,117c0,.33.12.72,0,1-.74,1.38-5.11,4.49-7,5,0-.33-.12-.72,0-1C136.51,119.21,139.1,117.88,142,117Z" transform="translate(-1 -1)"/><path class="cls-14" d="M87,158c0,.5.21,1.24,0,1.45-1.78,1.52-3.47,3.24-6,3.55,0-.5-.21-1.24,0-1.45C82.81,160,84.5,158.31,87,158Z" transform="translate(-1 -1)"/><path class="cls-14" d="M223,57c0,.5.21,1.24,0,1.45-1.78,1.52-3.47,3.24-6,3.55,0-.5-.21-1.24,0-1.45C218.81,59,220.5,57.31,223,57Z" transform="translate(-1 -1)"/><path class="cls-14" d="M122,132c-.41,2.77-.66,2.95-4,3C118.88,133.39,119.8,131.85,122,132Z" transform="translate(-1 -1)"/><path class="cls-14" d="M192,80c-.41,2.77-.66,3-4,3C188.88,81.39,189.8,79.85,192,80Z" transform="translate(-1 -1)"/><path class="cls-14" d="M227,54c-.41,2.77-.66,3-4,3C223.88,55.39,224.8,53.85,227,54Z" transform="translate(-1 -1)"/><path class="cls-14" d="M157,106c-.41,2.77-.66,3-4,3C153.88,107.39,154.8,105.85,157,106Z" transform="translate(-1 -1)"/><path class="cls-14" d="M212,65c-.21,2.24-.76,2.79-3,3C209.21,65.76,209.76,65.21,212,65Z" transform="translate(-1 -1)"/><path class="cls-14" d="M204,71c-.21,2.24-.76,2.79-3,3C201.21,71.76,201.76,71.21,204,71Z" transform="translate(-1 -1)"/><path class="cls-14" d="M196,77c-.21,2.24-.76,2.79-3,3C193.21,77.76,193.76,77.21,196,77Z" transform="translate(-1 -1)"/><path class="cls-14" d="M185,85c-.21,2.24-.76,2.79-3,3C182.21,85.76,182.76,85.21,185,85Z" transform="translate(-1 -1)"/><path class="cls-14" d="M181,88c-.21,2.24-.76,2.79-3,3C178.21,88.76,178.76,88.21,181,88Z" transform="translate(-1 -1)"/><path class="cls-14" d="M177,91c-.21,2.24-.76,2.79-3,3C174.21,91.76,174.76,91.21,177,91Z" transform="translate(-1 -1)"/><path class="cls-14" d="M173,94c-.21,2.24-.76,2.79-3,3C170.21,94.76,170.76,94.21,173,94Z" transform="translate(-1 -1)"/><path class="cls-14" d="M169,97c-.21,2.24-.76,2.79-3,3C166.21,97.76,166.76,97.21,169,97Z" transform="translate(-1 -1)"/><path class="cls-14" d="M165,100c-.21,2.24-.76,2.79-3,3C162.21,100.76,162.76,100.21,165,100Z" transform="translate(-1 -1)"/><path class="cls-14" d="M161,103c-.21,2.24-.76,2.79-3,3C158.21,103.76,158.76,103.21,161,103Z" transform="translate(-1 -1)"/><path class="cls-14" d="M150,111c-.21,2.24-.76,2.79-3,3C147.21,111.76,147.76,111.21,150,111Z" transform="translate(-1 -1)"/><path class="cls-14" d="M134,123c-.21,2.24-.76,2.79-3,3C131.21,123.76,131.76,123.21,134,123Z" transform="translate(-1 -1)"/><path class="cls-14" d="M130,126c-.21,2.24-.76,2.79-3,3C127.21,126.76,127.76,126.21,130,126Z" transform="translate(-1 -1)"/><path class="cls-14" d="M126,129c-.21,2.24-.76,2.79-3,3C123.21,129.76,123.76,129.21,126,129Z" transform="translate(-1 -1)"/><path class="cls-14" d="M115,137c-.21,2.24-.76,2.79-3,3C112.21,137.76,112.76,137.21,115,137Z" transform="translate(-1 -1)"/><path class="cls-14" d="M111,140c-.21,2.24-.76,2.79-3,3C108.21,140.76,108.76,140.21,111,140Z" transform="translate(-1 -1)"/><path class="cls-14" d="M107,143c-.21,2.24-.76,2.79-3,3C104.21,143.76,104.76,143.21,107,143Z" transform="translate(-1 -1)"/><path class="cls-14" d="M146,114c-.21,2.24-.76,2.79-3,3C143.21,114.76,143.76,114.21,146,114Z" transform="translate(-1 -1)"/><path class="cls-14" d="M103,146c-.21,2.24-.76,2.79-3,3C100.21,146.76,100.76,146.21,103,146Z" transform="translate(-1 -1)"/><path class="cls-14" d="M95,152c-.21,2.24-.76,2.79-3,3C92.21,152.76,92.76,152.21,95,152Z" transform="translate(-1 -1)"/><path class="cls-14" d="M91,155c-.21,2.24-.76,2.79-3,3C88.21,155.76,88.76,155.21,91,155Z" transform="translate(-1 -1)"/><path class="cls-14" d="M80,163c-.21,2.24-.76,2.79-3,3C77.21,163.76,77.76,163.21,80,163Z" transform="translate(-1 -1)"/><path class="cls-14" d="M76,166c-.21,2.24-.76,2.79-3,3C73.21,166.76,73.76,166.21,76,166Z" transform="translate(-1 -1)"/><path class="cls-14" d="M247,39c-.21,2.24-.76,2.79-3,3C244.21,39.76,244.76,39.21,247,39Z" transform="translate(-1 -1)"/><path class="cls-14" d="M243,42c-.21,2.24-.76,2.79-3,3C240.21,42.76,240.76,42.21,243,42Z" transform="translate(-1 -1)"/><path class="cls-14" d="M239,45c-.21,2.24-.76,2.79-3,3C236.21,45.76,236.76,45.21,239,45Z" transform="translate(-1 -1)"/><path class="cls-14" d="M231,51c-.21,2.24-.76,2.79-3,3C228.21,51.76,228.76,51.21,231,51Z" transform="translate(-1 -1)"/><path class="cls-14" d="M216,62c-.21,2.24-.76,2.79-3,3C213.21,62.76,213.76,62.21,216,62Z" transform="translate(-1 -1)"/><circle class="cls-14" cx="70" cy="169" r="1.41"/><circle class="cls-14" cx="116" cy="135" r="1.41"/><circle class="cls-14" cx="151" cy="109" r="1.41"/><circle class="cls-14" cx="233" cy="48" r="1.41"/><circle class="cls-14" cx="198" cy="74" r="1.41"/><circle class="cls-14" cx="186" cy="83" r="1.41"/><circle class="cls-14" cx="206" cy="68" r="1.41"/><circle class="cls-14" cx="97" cy="149" r="1.41"/><path class="cls-15" d="M63,316v2h2c2.31,4.4,3.49,9.22,5,13.9q5.52,16.94,11.21,33.81c3.2,9.49,6.72,18.88,9.71,28.43,2.63,8.4,5.87,16.56,8.61,24.91,3.13,9.52,6.34,19,9.43,28.55,1.38,4.26,3.27,8.36,4,12.82,1.87,1.59.66,3.72,1,5.58h-2l-1.62-2.31c-.87-3.13-1.59-6.32-2.63-9.4-2.51-7.44-5.18-14.82-7.74-22.24-1.1-3.2-2.08-6.45-3.14-9.67Q92,407.46,87,392.54c-1-3.07-2.46-6-3.22-9.16-1.09-4.63-3-9-4.5-13.59-1.39-4.4-2.86-8.79-4.28-13.19-2-6.16-4.57-12.09-6.32-18.34-1.25-4.43-3.36-8.62-4.57-13.05a12,12,0,0,0-2.72-5.39c-.36-.4-.27-1.2-.39-1.82,1.5-.09.85-1.24,1-2A.81.81,0,0,1,63,316Z" transform="translate(-1 -1)"/><path class="cls-14" d="M63,316H62a20.47,20.47,0,0,1-3.16-6.38c-1.19-3.46-2.64-6.89-3.78-10.37-2.64-8-5.11-16.13-8-24.09-3-8.24-5.56-16.63-8.34-25-3.22-9.62-6.48-19.23-9.7-28.86-1.13-3.35-2.16-6.74-3.27-10.1-.89-2.69-1.93-5.34-1.74-8.25h4c2.1,3.13,2.13,6.92,3.3,10.36,10.32,30.43,20.1,61,30.52,91.44.78,2.3,2.2,4.57,1.18,7.2.33,1.1.71,2.2,1,3.32C64,315.47,63.33,315.77,63,316Z" transform="translate(-1 -1)"/><path class="cls-16" d="M63,312c-1.67-4.81-3.29-9.63-5-14.42-2.6-7.26-4.82-14.64-7.55-21.87A112.64,112.64,0,0,1,44.89,258c-.86-4.36-2.74-8.51-4.16-12.75-3.58-10.69-7-21.41-10.8-32-1.19-3.36-2.28-6.61-1.93-10.2l1-1c1.34-1.32,2.69-2.65,4-4h1c1-1,2-2,3-3h1c1.72-2,4.34-2.93,6-5a13.39,13.39,0,0,0,4-3c.76-.15,1.91.5,2-1,.68-.66,1.34-1.32,2-2h1c1-1,2-2,3-3h5c5.34,12.18,9,25,13.26,37.52Q85,250.13,95.37,281.85c.54,1.64,1.83,3.27.63,5.15.38,2.29-1.56,3.22-2.85,4.25C88.35,295.06,83,298.09,78.22,302c-4.19,3.41-8.58,6.57-13.14,10Z" transform="translate(-1 -1)"/><path class="cls-14" d="M44,190c0,.5.21,1.24,0,1.45-1.78,1.52-3.47,3.24-6,3.55,0-.5-.21-1.24,0-1.45C39.81,192,41.5,190.31,44,190Z" transform="translate(-1 -1)"/><path class="cls-14" d="M33,198c-.51,2.57-1.43,3.49-4,4C29.51,199.43,30.43,198.51,33,198Z" transform="translate(-1 -1)"/><path class="cls-14" d="M48,187c-.41,2.77-.66,2.95-4,3C44.88,188.39,45.8,186.85,48,187Z" transform="translate(-1 -1)"/><path class="cls-14" d="M56,181c-.21,2.24-.76,2.79-3,3C53.21,181.76,53.76,181.21,56,181Z" transform="translate(-1 -1)"/><path class="cls-14" d="M37,195c-.21,2.24-.76,2.79-3,3C34.21,195.76,34.76,195.21,37,195Z" transform="translate(-1 -1)"/><circle class="cls-14" cx="50" cy="184" r="1.41"/><path class="cls-12" d="M302,214a5,5,0,0,1,1.83.38c6.62,4.53,12.83,9.64,19.77,13.72C326,231.64,331,232,333,236l-.54.48c-2,.8-3.52-.41-5-1.41-8-5.5-15.82-11.29-23.77-16.88-1.22-.86-2.41-1.81-2.12-3.59Z" transform="translate(-1 -1)"/><path class="cls-12" d="M257,182a5,5,0,0,1,1.83.38c6.62,4.53,12.83,9.64,19.77,13.72C281,199.64,286,200,288,204l-.54.48c-2,.8-3.52-.41-5-1.41-8-5.5-15.82-11.29-23.77-16.88-1.22-.86-2.41-1.81-2.12-3.59Z" transform="translate(-1 -1)"/><path class="cls-12" d="M219,199c1.3-3,4.43-4.05,6.72-5.86,3.29-2.6,6.71-5.12,10.15-7.55,3-2.09,5.76-4.41,8.67-6.56.32-.23,1,0,1.46,0l.41.6c.3,1.78-.92,2.71-2.1,3.61q-9.84,7.5-19.79,14.84c-1.43,1-3,2.23-5,1.44Z" transform="translate(-1 -1)"/><path class="cls-12" d="M184,225c1.3-3,4.43-4.05,6.72-5.86,3.29-2.6,6.71-5.12,10.15-7.55,3-2.09,5.76-4.41,8.67-6.56.32-.23,1,0,1.46,0l.41.6c.3,1.78-.92,2.71-2.1,3.61q-9.84,7.5-19.79,14.84c-1.43,1-3,2.23-5,1.44Z" transform="translate(-1 -1)"/><path class="cls-12" d="M118,274c1.33-3,4.54-3.89,6.75-5.91a88.65,88.65,0,0,1,10.63-7.89c2-1.36,3.66-3.71,6.62-3.2.07.23.15.45.22.68-.55,2.61-2.94,3.5-4.71,4.89-4.32,3.38-8.75,6.61-13.16,9.87-1.68,1.24-3.34,2.91-5.82,2Z" transform="translate(-1 -1)"/><path class="cls-12" d="M153,248c1.33-3,4.54-3.89,6.75-5.91a88.65,88.65,0,0,1,10.63-7.89c2-1.36,3.66-3.71,6.62-3.2.07.23.15.45.22.68-.55,2.61-2.94,3.5-4.71,4.89-4.32,3.38-8.75,6.61-13.16,9.87-1.68,1.24-3.34,2.91-5.82,2Z" transform="translate(-1 -1)"/><path class="cls-12" d="M246,179l1.42-2.11c3.92.41,7.47,1.36,9.58,5.11C252.61,183.65,249.66,180,246,179Z" transform="translate(-1 -1)"/><path class="cls-12" d="M374,266a9.58,9.58,0,0,1,8,5l-.52.48c-3.81.39-6.13-1.62-7.71-4.81C373.84,266.45,373.92,266.22,374,266Z" transform="translate(-1 -1)"/><path class="cls-12" d="M344,244c2.9.87,5.47,2.21,7,5l-.55.49c-3.58.19-6.13-1.07-6.87-4.89Z" transform="translate(-1 -1)"/><path class="cls-12" d="M337,239c2.9.87,5.47,2.21,7,5-4.18,1.47-6.33-.52-7.42-4.34Z" transform="translate(-1 -1)"/><path class="cls-12" d="M295,209c2.9.87,5.47,2.21,7,5-4.18,1.48-6.32-.54-7.42-4.34Z" transform="translate(-1 -1)"/><path class="cls-12" d="M288,204c2.9.87,5.47,2.21,7,5C290.35,210,288.11,208.38,288,204Z" transform="translate(-1 -1)"/><path class="cls-12" d="M382,271c2.9.87,5.47,2.21,7,5l-.61.5C384.82,276.34,381.49,275.9,382,271Z" transform="translate(-1 -1)"/><path class="cls-12" d="M389,276c3.42,1,5.34,2.57,6,5l-.63.43C391.39,280.8,388.12,280.45,389,276Z" transform="translate(-1 -1)"/><path class="cls-12" d="M180,228c.88-1.61,1.8-3.15,4-3,1,3.17-.74,3.78-3.37,3.51Z" transform="translate(-1 -1)"/><path class="cls-12" d="M361,256c2.2-.15,3.12,1.39,4,3l-.55.49c-2.42.55-3.81-.27-3.87-2.89Z" transform="translate(-1 -1)"/><path class="cls-12" d="M145,254c.88-1.61,1.8-3.15,4-3l.42.6c-.06,2.61-1.45,3.44-3.87,2.89Z" transform="translate(-1 -1)"/><path class="cls-12" d="M114,277c.88-1.61,1.8-3.15,4-3,1,3.17-.74,3.78-3.37,3.51Z" transform="translate(-1 -1)"/><path class="cls-12" d="M110,280c.88-1.61,1.8-3.15,4-3C114.75,280.78,113,281.22,110,280Z" transform="translate(-1 -1)"/><path class="cls-12" d="M399,283c2.2-.15,3.12,1.39,4,3-2.62,1.43-4.08.63-4.42-2.31Z" transform="translate(-1 -1)"/><path class="cls-12" d="M211,205c.88-1.61,1.8-3.15,4-3l.42.69C215.07,205.61,213.62,206.43,211,205Z" transform="translate(-1 -1)"/><path class="cls-12" d="M215,202c.88-1.61,1.8-3.15,4-3C219.75,202.78,218,203.22,215,202Z" transform="translate(-1 -1)"/><path class="cls-12" d="M149,251c.88-1.61,1.8-3.15,4-3C153.75,251.78,152,252.22,149,251Z" transform="translate(-1 -1)"/><path class="cls-12" d="M333,236c2.2-.15,3.12,1.39,4,3C334,240.22,332.25,239.78,333,236Z" transform="translate(-1 -1)"/><path class="cls-12" d="M354,251c2.2-.15,3.12,1.39,4,3l-.55.49c-2.42.55-3.81-.27-3.87-2.89Z" transform="translate(-1 -1)"/><path class="cls-12" d="M368,261c2.2-.15,3.12,1.39,4,3l-.55.49c-2.42.55-3.81-.27-3.87-2.89Z" transform="translate(-1 -1)"/><path class="cls-12" d="M177,231c.21-2.24.76-2.79,3-3C180.82,230.82,179.83,231.83,177,231Z" transform="translate(-1 -1)"/><path class="cls-12" d="M142,257c.21-2.24.76-2.79,3-3C145.82,256.82,144.83,257.83,142,257Z" transform="translate(-1 -1)"/><path class="cls-12" d="M395,281c1.71-.08,3.44-.21,4,2C396.73,284.21,395.2,283.94,395,281Z" transform="translate(-1 -1)"/><path class="cls-12" d="M351,249a2.46,2.46,0,0,1,3,2C352,251.79,350.29,252.23,351,249Z" transform="translate(-1 -1)"/><path class="cls-12" d="M358,254a2.46,2.46,0,0,1,3,2C359,256.79,357.29,257.23,358,254Z" transform="translate(-1 -1)"/><path class="cls-12" d="M365,259a2.46,2.46,0,0,1,3,2C366,261.79,364.29,262.23,365,259Z" transform="translate(-1 -1)"/><path class="cls-12" d="M372,264h2v2C371.93,266.74,371.22,266.11,372,264Z" transform="translate(-1 -1)"/><path class="cls-17" d="M434,308c-2.79.69-4.34-1.61-6.22-2.82-4.44-2.88-8.69-6.07-13-9.19-2-1.47-3.94-3.07-6.23-4.87L410,290c7.3,5.13,14.62,10.24,21.87,15.43A12.78,12.78,0,0,1,434,308Z" transform="translate(-1 -1)"/><path class="cls-18" d="M402,289c.33,1,.67,2,1,3,1.12,1.36.58,2.74.23,4.24-1.66,7.13-4.58,13.87-6.45,20.95-.8,3-3.28,3.85-6.24,3.82q-9.75-.09-19.49,0-60,.48-119.89,1.23c-31.3.37-62.6.49-93.9.83-12.8.14-25.6.84-38.42.92-2,0-4,.29-5.85-.52-1.76-1.06-2.4-2.78-3-4.53-2.41-7.25-4.88-14.49-7.24-21.76-.58-1.81-1.14-3.5.23-5.17v-3c4.81-5.56,11.15-9.26,17-13.55Q170.13,238.36,220.11,201c9-6.75,18.2-13.33,27.2-20.12a4.4,4.4,0,0,1,2.47-.7c4.46,1.85,8.42,5.46,12.69,8.5,45,32,89.86,64.14,135,96C399.1,285.82,401.46,286.55,402,289Z" transform="translate(-1 -1)"/><path class="cls-19" d="M402,289c-5.71-3.33-10.95-7.38-16.32-11.18-5.56-3.93-11.28-7.72-16.55-12.1-2.89-2.4-6.23-4.26-9.32-6.42-4.66-3.27-9.23-6.66-13.91-9.88-9-6.17-17.71-12.66-26.66-18.85-7.92-5.47-15.69-11.17-23.56-16.71-5.58-3.92-11.24-7.79-16.54-12.13-2.91-2.38-6.23-4.24-9.31-6.42-4.78-3.38-9.52-6.82-14.26-10.25-1.81-1.3-3.59-2.65-5.6-4.13a5.74,5.74,0,0,0-2,.63c-3.07,2.29-6,4.78-9.11,7s-6.17,4.35-9.28,6.49c-4.6,3.16-8.85,6.8-13.32,10.14-5.83,4.36-11.41,9.05-17.66,12.86-3.25,2-6.09,4.63-9.13,6.95-6.31,4.81-12.77,9.43-19.05,14.27-5.68,4.37-11.53,8.54-17.27,12.82-8.23,6.15-16.18,12.7-24.88,18.24-4.83,3.08-9,7.16-13.7,10.47-3.86,2.73-7.2,6.21-11.59,8.19l-1.43-.78a29.66,29.66,0,0,1,6.65-5.2c1.17-.73,2-1.52,1.78-3,3.34-.05,3.59-.23,4-3,3.34-.05,3.59-.23,4-3,2.81.65,4.41-1.6,6.25-2.87,5.33-3.67,10.47-7.63,15.62-11.55A14.56,14.56,0,0,0,142,257c2.24-.21,2.79-.76,3-3,3.34-.05,3.59-.23,4-3,3.34-.05,3.59-.23,4-3,2.81.65,4.41-1.6,6.25-2.87,5.33-3.67,10.47-7.63,15.62-11.55A14.56,14.56,0,0,0,177,231c2.24-.21,2.79-.76,3-3,3.34-.05,3.59-.23,4-3,2.8.67,4.41-1.56,6.23-2.85,6.68-4.72,13.16-9.72,19.74-14.6a2.47,2.47,0,0,0,1-2.55c3.34-.05,3.59-.23,4-3,3.34-.05,3.59-.23,4-3,2.8.67,4.41-1.56,6.23-2.85,6.68-4.72,13.16-9.72,19.74-14.6a2.47,2.47,0,0,0,1-2.55c3.1-.24,5.94.15,8.26,2.63.48.52,1.8.27,2.74.37a2.52,2.52,0,0,0,1.43,2.89c7.16,4.37,13.8,9.46,20.49,14.5a62.71,62.71,0,0,0,6.26,4.2c.76.45,1.87.29,2.82.41,0,.33-.14.77,0,1,1.78,2.26,3.81,4.15,7,4,0,.33-.14.77,0,1,1.78,2.26,3.81,4.15,7,4a2.52,2.52,0,0,0,1.43,2.89c7.16,4.37,13.8,9.46,20.49,14.5a62.71,62.71,0,0,0,6.26,4.2c.76.45,1.87.29,2.82.41.41,2.77.66,2.95,4,3,0,.33-.14.77,0,1,1.78,2.26,3.81,4.15,7,4,0,.33-.14.77,0,1,1.78,2.26,3.81,4.15,7,4v2h3c.41,2.77.66,2.95,4,3v2h3c.41,2.77.66,2.95,4,3v2h3c.41,2.77.66,2.95,4,3v2h2a9.58,9.58,0,0,0,8,5c0,.33-.14.77,0,1,1.78,2.26,3.81,4.15,7,4,0,.5-.21,1.24,0,1.45,1.78,1.51,3.47,3.24,6,3.55.56,2.21,2.29,2.08,4,2,.41,2.77.66,2.95,4,3C402.62,287,403.93,288.53,402,289Z" transform="translate(-1 -1)"/><path class="cls-20" d="M103,292c-.69,3.51,1.4,6.44,2.23,9.58,1.54,5.79,3.78,11.4,5.79,17.06.52,1.45,1.3,2.8,2,4.36,5.79,0,11.53.74,17-.18,7.9-1.32,15.73-.7,23.58-.76,23.14-.17,46.27-.06,69.41-.06,10.47-1.81,21-.82,31.54-1,10.82-.15,21.64,0,32.46,0,10.65,0,21.38.8,31.93-.21,12.39-1.17,24.71-.5,37.06-.74s25-.05,37.48-.05l2.07-2.12c.9-3.42,1.33-6.6,2.57-9.41,2.07-4.7,3.08-9.7,4.82-14.48a6.29,6.29,0,0,0,0-2h1.85c0,1.08.45,2.32.09,3.27-2.48,6.49-4,13.31-6.47,19.79a25.34,25.34,0,0,0-.74,3.72L394.18,322c-15.43,0-31.29-.8-47,.22-16,1-32,.5-48.05.73s-32,.05-48,.05c-10.3,2-20.71.76-31.06,1-10.65.2-21.31,0-32,0-10.49,0-21.06-.8-31.46.19-14.71,1.4-29.39.14-43.86.95-2.53-1.83-3.32-4.31-4.17-6.95-2.76-8.63-5.78-17.18-8.84-26.19Z" transform="translate(-1 -1)"/><path class="cls-20" d="M96,287c-1.77-5.6-3.46-11.23-5.32-16.8-3.51-10.54-7.16-21-10.67-31.58-3.8-11.43-7.46-22.9-11.25-34.34-1.84-5.56-4-11-5.68-16.63-.67-2.23-2.82-4-2.08-6.65l1-1c.28.12.8.2.82.36,1,6.18,3.46,11.85,5.64,17.64,1.67,4.47,3,9.06,4.54,13.6,3.43,10.4,6.82,20.81,10.3,31.19s7.13,21,10.7,31.51c1.24,3.65,2.53,7.28,3.71,10.95a13.39,13.39,0,0,1,.25,2.9Z" transform="translate(-1 -1)"/></svg>